<?xml version="1.0" standalone="no"?>
<!DOCTYPE svg PUBLIC "-//W3C//DTD SVG 20010904//EN"
 "http://www.w3.org/TR/2001/REC-SVG-20010904/DTD/svg10.dtd">
<svg version="1.0" xmlns="http://www.w3.org/2000/svg"
 width="225.000000pt" height="225.000000pt" viewBox="0 0 225.000000 225.000000"
 preserveAspectRatio="xMidYMid meet">
<metadata>
Created by potrace 1.10, written by Peter Selinger 2001-2011
</metadata>
<g transform="translate(0.000000,225.000000) scale(0.100000,-0.100000)"
fill="#ff0000" stroke="none">
<path d="M2245 1125 c0 -622 1 -874 2 -562 2 313 2 821 0 1130 -1 309 -2 54
-2 -568z"/>
<path d="M1160 2123 c-28 -11 -50 -36 -50 -60 0 -30 33 -63 63 -63 54 0 79 84
35 114 -24 17 -25 17 -48 9z m40 -44 c14 -26 -4 -51 -34 -47 -24 4 -33 33 -16
53 17 21 37 19 50 -6z"/>
<path d="M1024 2083 c3 -21 6 -48 6 -60 0 -20 5 -23 35 -23 24 0 35 5 35 15 0
9 -8 14 -22 12 -21 -2 -23 3 -26 46 -2 35 -7 47 -19 47 -13 0 -14 -7 -9 -37z"/>
<path d="M903 2095 c-44 -31 -16 -115 37 -115 27 0 60 35 60 63 0 51 -56 81
-97 52z m62 -50 c0 -25 -4 -30 -25 -30 -16 0 -26 6 -28 18 -6 30 6 49 30 45
18 -2 23 -9 23 -33z"/>
<path d="M1283 2095 c-32 -22 -35 -64 -7 -92 27 -27 56 -30 78 -7 17 16 22 44
9 44 -5 0 -18 3 -30 6 -14 4 -23 2 -23 -5 0 -6 7 -11 15 -11 8 0 15 -4 15 -10
0 -5 -11 -10 -24 -10 -31 0 -45 35 -22 58 13 14 19 14 41 2 29 -15 46 -6 24
14 -23 23 -53 27 -76 11z"/>
<path d="M807 2074 c-3 -4 0 -19 8 -35 22 -41 19 -43 -20 -13 -19 14 -41 24
-50 21 -12 -5 -11 -14 7 -59 26 -65 26 -64 39 -51 8 8 6 20 -5 42 -20 38 -15
39 28 6 32 -24 56 -32 56 -18 0 3 -8 30 -17 60 -17 49 -30 63 -46 47z"/>
<path d="M1397 2027 c-21 -65 -21 -67 -3 -67 8 0 19 20 27 48 16 59 16 65 3
69 -5 2 -18 -21 -27 -50z"/>
<path d="M1466 2029 c-53 -41 -16 -121 49 -105 35 9 31 26 -5 26 -34 0 -49 23
-33 48 15 24 30 25 50 3 20 -24 33 -27 33 -7 0 14 -45 56 -60 56 -4 0 -19 -9
-34 -21z"/>
<path d="M670 2011 c0 -6 5 -13 10 -16 16 -10 12 -32 -7 -39 -11 -5 -23 0 -33
13 -9 12 -20 17 -27 13 -8 -5 -3 -22 19 -57 38 -62 34 -58 48 -50 8 5 7 13 -4
30 -14 21 -13 23 9 33 20 9 25 8 30 -8 6 -20 35 -29 35 -11 0 20 -53 101 -66
101 -8 0 -14 -4 -14 -9z"/>
<path d="M1582 1933 c-37 -25 -49 -39 -40 -44 7 -5 22 -6 34 -3 12 3 26 -1 33
-10 8 -9 10 -16 6 -16 -4 0 -1 -7 6 -16 12 -15 16 -9 30 47 23 94 13 100 -69
42z m51 -17 c-3 -16 -10 -23 -19 -19 -19 7 -18 20 4 32 9 6 18 11 18 11 1 0
-1 -11 -3 -24z"/>
<path d="M520 1910 c-11 -11 -20 -26 -20 -34 0 -25 41 -66 66 -66 29 0 64 33
64 60 0 28 -19 25 -30 -5 -11 -28 -41 -33 -60 -10 -16 19 -6 45 18 45 11 0 25
7 32 15 20 24 -45 20 -70 -5z"/>
<path d="M1687 1866 l-36 -43 24 -23 c26 -25 46 -21 25 5 -10 12 -7 21 19 53
27 35 31 52 11 52 -4 0 -24 -20 -43 -44z"/>
<path d="M433 1830 l-22 -27 43 -42 42 -41 22 23 c23 24 29 47 12 47 -5 0 -13
-7 -18 -16 -5 -10 -14 -14 -21 -9 -9 5 -8 12 4 25 11 13 13 20 5 25 -6 4 -17
-1 -24 -11 -9 -12 -15 -14 -20 -5 -4 6 -2 19 5 27 7 9 8 18 3 23 -5 5 -19 -3
-31 -19z"/>
<path d="M747 1739 l-85 -101 33 -48 c18 -27 36 -67 40 -88 6 -38 -8 -116 -25
-137 -17 -21 -40 -121 -40 -172 0 -87 38 -158 108 -200 20 -13 41 -23 46 -23
6 0 -11 13 -36 29 -28 18 -57 48 -75 78 -24 42 -28 58 -27 123 0 60 7 90 32
153 44 109 41 169 -14 248 l-26 38 78 91 c55 64 83 89 94 84 8 -4 41 -16 74
-27 57 -20 60 -20 127 -3 56 14 72 15 91 5 40 -22 137 -16 188 10 l44 23 54
-58 c30 -33 70 -76 89 -96 32 -34 33 -37 16 -46 -10 -6 -29 -32 -43 -59 -33
-65 -31 -124 5 -204 41 -90 47 -206 15 -270 -38 -73 -73 -96 -232 -148 -53
-18 -114 -45 -136 -60 l-38 -29 -39 30 c-61 45 -195 83 -280 80 -38 -2 -85 -8
-103 -14 l-33 -10 3 -91 3 -92 100 -62 c55 -34 106 -62 113 -62 6 -1 12 10 12
24 l0 24 73 -35 c134 -63 241 -66 365 -9 30 14 61 25 68 25 8 0 14 5 14 11 0
5 4 8 9 5 5 -3 7 -15 4 -26 -8 -29 8 -25 84 21 106 64 103 60 103 155 0 95 -6
103 -91 125 l-48 13 41 35 c97 83 103 184 23 401 -22 60 -13 117 31 181 39 59
48 37 -70 177 -52 61 -72 79 -82 71 -8 -6 -14 -7 -18 0 -4 6 -29 -1 -62 -16
-58 -26 -78 -27 -179 -5 -28 6 -49 4 -70 -4 -47 -20 -101 -16 -155 11 -28 14
-50 21 -50 15 0 -7 -6 -8 -19 -1 -17 9 -30 -3 -104 -90z m723 -794 c20 -12 22
-14 7 -15 -25 0 -87 -30 -87 -41 0 -5 9 -4 20 3 17 11 22 10 30 -2 5 -8 7 -17
4 -21 -2 -4 0 -10 6 -14 18 -11 10 -25 -15 -25 -16 0 -25 -6 -25 -16 0 -18
-22 -14 -28 6 -3 8 0 10 8 5 9 -6 11 -4 5 4 -5 9 -10 10 -18 2 -7 -7 -6 -15 4
-27 12 -16 12 -17 -3 -11 -11 4 -17 2 -15 -5 1 -6 -4 -13 -10 -15 -11 -4 -19
22 -14 50 1 10 0 10 -47 -13 -22 -11 -48 -20 -57 -20 -24 0 -17 29 10 42 14 6
25 15 25 20 0 13 -16 9 -42 -12 -14 -10 -29 -16 -33 -12 -4 4 -2 -4 5 -17 8
-15 9 -26 2 -33 -7 -7 -10 -4 -9 8 2 15 -6 20 -35 22 -22 2 -39 9 -42 19 -5
13 -4 14 8 4 18 -15 60 -5 53 12 -2 7 3 19 11 27 14 13 15 12 10 -2 -5 -12 -2
-14 15 -10 12 3 16 7 9 10 -9 3 -8 8 3 19 10 10 20 12 28 6 7 -5 23 -10 37
-10 25 -1 25 -1 -3 11 -33 15 -25 28 12 20 21 -5 23 -3 11 6 -12 9 -11 10 7 5
13 -3 34 2 55 15 39 23 63 25 98 5z m-562 -28 c42 -11 57 -27 25 -27 -9 0 -14
-3 -10 -6 10 -11 48 7 40 19 -3 7 3 4 14 -5 11 -10 25 -18 31 -18 7 0 12 -5
12 -11 0 -5 5 -7 12 -3 8 5 9 2 5 -9 -3 -9 -1 -19 5 -23 6 -4 8 -3 4 4 -3 6
-2 14 4 17 6 4 10 3 9 -2 -4 -23 3 -33 24 -30 13 1 21 -3 20 -10 -2 -9 11 -13
43 -13 29 0 43 -4 39 -10 -4 -6 -4 -19 0 -28 6 -16 7 -16 16 1 6 9 20 17 32
17 16 0 18 -3 9 -9 -10 -6 -7 -10 12 -15 16 -4 24 -11 20 -18 -4 -7 -3 -8 4
-4 19 12 14 36 -5 30 -15 -5 -15 -3 2 11 33 27 55 37 50 23 -3 -7 5 -24 16
-38 11 -14 18 -20 15 -13 -8 14 33 43 66 48 35 4 59 16 52 26 -3 5 2 6 10 3 9
-3 16 -1 16 6 0 6 4 9 9 6 10 -6 7 46 -3 63 -9 13 -46 15 -46 2 0 -5 10 -7 22
-3 14 3 19 2 14 -6 -4 -7 -3 -12 2 -12 5 0 9 -7 9 -16 0 -17 -47 -16 -48 1 -1
6 -5 18 -10 28 -10 18 -8 20 44 32 21 4 27 3 21 -6 -4 -7 -3 -9 4 -6 27 18 39
-4 41 -78 l2 -74 -57 -36 c-59 -38 -110 -51 -130 -34 -9 7 -28 2 -65 -16 -60
-31 -145 -55 -192 -55 -42 0 -107 18 -107 30 0 13 4 12 34 -1 18 -8 29 -9 38
-2 7 6 31 9 53 8 41 -3 75 8 75 25 0 5 -16 2 -35 -6 -25 -10 -41 -12 -53 -5
-16 10 -16 10 1 11 10 0 15 5 12 10 -3 6 1 11 9 11 29 3 34 4 42 12 4 4 16 7
26 7 11 0 16 5 13 10 -4 6 -20 9 -36 6 -26 -4 -29 -2 -25 17 3 12 -1 7 -9 -10
-16 -35 -47 -43 -87 -22 -11 6 -31 13 -46 15 -37 7 -55 34 -33 52 14 12 14 12
-5 7 -12 -3 -33 -1 -46 6 -20 9 -25 17 -22 42 1 18 0 26 -3 18 -4 -11 -10 -8
-24 10 -16 20 -18 21 -13 4 5 -18 3 -17 -15 4 -20 22 -60 23 -46 1 3 -5 2 -10
-4 -10 -5 0 -11 3 -14 8 -2 4 -3 2 -1 -3 3 -18 -27 -52 -33 -37 -4 9 -8 10
-18 2 -10 -9 -13 -3 -11 25 1 19 -3 35 -7 35 -5 0 -7 -14 -5 -31 4 -27 2 -30
-21 -27 -22 3 -26 7 -23 33 5 40 27 57 59 44 14 -5 34 -7 44 -4 12 4 19 1 19
-7 0 -10 3 -9 10 2 6 9 5 17 -3 22 -14 9 41 1 101 -15z m-48 -64 c0 -8 -5 -11
-10 -8 -6 4 -9 3 -8 -2 1 -4 -3 -18 -10 -29 -6 -12 -8 -24 -5 -28 6 -6 -15
-10 -44 -9 -17 1 -16 -3 3 -26 10 -11 24 -17 36 -13 11 3 24 -1 28 -9 5 -7 12
-10 16 -7 3 4 -9 16 -27 27 -26 16 -29 21 -14 20 22 0 66 -17 50 -18 -5 -1 2
-8 18 -15 23 -13 31 -13 55 0 17 9 21 14 10 14 -9 0 -20 -4 -23 -10 -3 -5 -11
-10 -17 -10 -7 0 -6 6 2 15 9 10 9 15 1 15 -6 0 -11 -5 -11 -11 0 -5 -5 -7
-10 -4 -8 5 -7 12 2 23 11 15 11 15 -3 4 -13 -10 -19 -10 -28 2 -13 16 -4 49
12 39 6 -4 7 -1 2 7 -6 10 -12 7 -26 -11 -10 -13 -20 -21 -23 -18 -4 3 6 19
21 35 l27 29 10 -27 c12 -27 56 -68 74 -68 17 0 22 -28 7 -40 -8 -6 -11 -18
-8 -27 5 -13 9 -12 22 6 20 26 51 19 51 -10 0 -22 -4 -23 -30 -9 -15 8 -21 6
-29 -7 -6 -11 -11 -13 -11 -5 0 7 -5 10 -12 6 -6 -4 -8 -3 -5 3 4 6 -9 17 -31
26 -39 16 -57 13 -32 -4 11 -8 7 -9 -16 -5 -17 3 -36 0 -43 -7 -16 -16 -38 7
-23 25 8 11 7 14 -6 15 -34 3 -111 35 -116 49 -3 8 -2 12 3 9 5 -3 13 0 17 6
4 8 3 9 -4 5 -7 -4 -12 -2 -12 4 0 6 -6 8 -12 4 -7 -4 -5 1 4 12 17 17 19 17
59 -4 47 -25 53 -27 43 -10 -4 7 -3 8 5 4 6 -4 8 -12 5 -18 -4 -7 -2 -8 4 -4
9 5 9 12 1 29 -9 16 -9 22 0 25 6 2 8 9 4 15 -4 6 0 8 10 4 9 -3 16 -3 16 1
-1 4 -1 13 0 21 1 19 31 -6 31 -26z m236 -165 c4 -6 -1 -17 -11 -25 -26 -18
-30 -17 -33 12 -1 19 3 25 18 25 10 0 22 -5 26 -12z"/>
<path d="M1308 853 c-10 -2 -18 -11 -18 -19 0 -12 4 -12 25 2 36 23 34 28 -7
17z"/>
<path d="M1000 855 c0 -12 -5 -15 -17 -10 -39 16 -56 18 -49 7 4 -7 12 -12 18
-12 6 0 19 -6 27 -14 14 -13 17 -12 28 10 6 14 7 26 2 30 -5 3 -9 -2 -9 -11z"/>
<path d="M1008 795 c-3 -14 -1 -25 4 -25 5 0 6 -4 3 -10 -3 -5 -1 -10 5 -10 6
0 8 12 5 32 -8 42 -11 45 -17 13z"/>
<path d="M1113 761 c5 -26 3 -29 -13 -26 -11 2 -25 7 -30 10 -6 3 -10 1 -10
-4 0 -6 7 -12 15 -12 49 -4 50 -4 47 23 -2 22 2 27 25 31 25 4 25 4 -6 6 -32
1 -33 0 -28 -28z"/>
<path d="M1309 763 c8 -16 8 -23 -2 -26 -9 -4 -9 -6 0 -6 20 -2 23 15 7 35
-14 18 -15 18 -5 -3z"/>
<path d="M1385 772 c-3 -3 0 -11 7 -19 9 -11 7 -12 -7 -7 -13 5 -16 4 -11 -4
11 -17 29 -15 48 7 15 18 15 19 -8 24 -13 2 -26 2 -29 -1z"/>
<path d="M1510 760 c-8 -4 -37 -16 -63 -25 -27 -9 -46 -19 -44 -21 6 -7 101
28 117 42 16 16 12 17 -10 4z"/>
<path d="M1787 1786 c-42 -38 -46 -57 -17 -86 27 -27 39 -25 83 11 27 22 35
35 28 42 -8 8 -20 3 -40 -17 -18 -17 -36 -26 -45 -23 -24 10 -19 28 17 58 22
19 29 31 21 38 -7 8 -21 1 -47 -23z"/>
<path d="M1328 1777 c-54 -27 -135 -33 -182 -13 -35 14 -43 14 -83 1 -60 -20
-102 -19 -169 6 l-57 21 -41 -48 c-22 -27 -53 -62 -67 -78 l-26 -30 30 -43
c47 -66 49 -143 6 -248 -58 -143 -40 -262 49 -319 20 -14 75 -37 122 -52 91
-29 174 -67 185 -84 5 -8 12 -7 23 3 27 24 92 53 182 82 138 44 178 77 201
168 14 58 0 140 -36 220 -40 85 -30 177 27 259 10 14 2 27 -47 85 -83 97 -75
92 -117 70z m-448 -22 c47 -25 139 -30 184 -11 21 9 40 16 42 16 3 0 3 -25 2
-55 -1 -30 -6 -55 -11 -55 -5 0 -6 -7 -3 -15 3 -8 9 -23 12 -32 5 -15 4 -16
-5 -3 -9 13 -11 13 -11 -2 0 -10 5 -18 12 -18 9 0 9 -3 0 -12 -17 -17 -35 -17
-52 0 -13 14 -12 15 3 9 12 -4 17 -1 17 9 0 11 -6 14 -17 10 -17 -6 -17 -5 0
8 20 16 23 46 3 46 -9 0 -17 -17 -21 -52 -8 -58 -7 -63 15 -63 8 0 14 -6 12
-13 -1 -8 2 -11 9 -6 8 4 9 -1 4 -17 -5 -19 -4 -21 4 -9 8 12 11 5 11 -27 0
-23 5 -45 10 -48 6 -3 10 -22 10 -41 l0 -34 174 0 173 0 14 -47 c20 -70 17
-152 -7 -193 -27 -47 -69 -74 -167 -106 -45 -15 -108 -39 -139 -55 l-58 -28 0
215 0 214 -170 0 c-93 0 -170 2 -170 4 0 28 16 36 76 36 l64 0 0 30 c0 31 17
39 38 18 9 -9 12 -9 12 -1 0 7 -5 15 -11 18 -6 4 -14 17 -19 29 -7 20 -8 20
-15 -7 -5 -18 -13 -27 -23 -25 -20 4 -62 129 -62 185 0 42 0 43 35 43 19 0 35
-4 35 -10 0 -5 -9 -10 -19 -10 -14 0 -20 -9 -23 -34 -3 -29 0 -35 17 -38 14
-3 21 1 22 11 0 9 4 35 8 59 l8 42 -32 0 c-18 0 -31 5 -32 13 0 6 -5 2 -11
-10 -6 -13 -19 -23 -30 -23 -23 0 -21 -15 20 -130 32 -91 41 -119 35 -107 -3
4 -10 7 -16 7 -7 0 -28 50 -48 111 l-36 111 46 54 c25 30 47 54 49 54 1 0 16
-7 32 -15z m514 -31 c2 -10 8 -18 14 -17 15 4 53 -47 45 -60 -3 -5 -1 -7 5 -3
6 3 13 2 17 -3 3 -5 -3 -14 -12 -20 -10 -6 -15 -11 -10 -11 4 0 1 -13 -7 -28
-8 -15 -17 -45 -21 -66 -5 -24 -11 -34 -17 -28 -6 6 -6 17 1 30 6 10 8 22 5
25 -3 3 0 15 6 27 10 18 9 21 -1 15 -9 -6 -11 -3 -6 11 7 18 7 18 -8 0 -15
-19 -15 -19 -15 1 0 27 -53 66 -91 67 -16 1 -29 4 -29 8 0 8 -21 5 -40 -7 -8
-5 -21 -10 -29 -10 -16 0 -38 -31 -29 -41 4 -3 17 3 29 15 23 21 32 24 82 23
59 -1 108 -56 107 -118 0 -57 -4 -83 -10 -81 -3 1 -17 -7 -32 -17 -45 -30 -97
-31 -143 -4 -22 13 -42 30 -44 38 -12 50 -12 91 -1 104 12 16 6 36 -11 36 -6
0 -8 -4 -4 -9 3 -5 1 -12 -4 -15 -14 -9 -18 24 -7 68 6 27 6 44 -2 57 -10 16
-8 20 12 25 13 3 33 1 43 -4 21 -11 150 11 167 28 12 12 36 -9 40 -36z m-284
-183 c-14 -28 -12 -41 6 -34 8 3 13 11 10 18 -2 6 0 18 5 26 6 9 8 2 5 -21 -2
-19 0 -44 4 -56 7 -17 5 -23 -10 -27 -25 -7 -31 2 -19 26 6 10 7 17 2 14 -5
-4 -17 10 -27 29 -9 20 -13 33 -8 30 4 -2 14 -1 22 5 21 12 22 11 10 -10z
m315 -139 c7 -33 7 -33 -29 -30 -20 1 -36 7 -36 13 0 6 -3 5 -8 -2 -4 -6 -40
-15 -80 -18 -63 -7 -72 -6 -72 9 0 19 11 21 30 4 7 -7 5 1 -5 17 l-19 30 37
-28 c20 -15 37 -23 37 -17 0 6 4 9 9 6 5 -4 17 -3 27 1 16 6 16 7 -2 15 -14 6
-12 7 9 3 20 -4 27 -1 27 10 0 9 5 13 10 10 6 -3 10 -1 10 4 0 6 7 11 15 11 8
0 15 8 16 18 0 14 1 14 8 -3 5 -11 12 -35 16 -53z m-265 28 c0 -5 9 -10 20
-10 11 0 20 -4 20 -9 0 -19 -13 -41 -24 -41 -15 0 -67 56 -59 64 10 10 43 7
43 -4z m-332 -9 c10 -6 7 -10 -10 -13 -16 -3 -25 0 -25 9 0 15 16 17 35 4z
m-52 -124 c7 3 11 10 7 16 -3 5 -2 7 4 4 5 -3 71 -7 146 -8 133 -1 137 -2 143
-24 7 -29 1 -331 -7 -339 -8 -8 -40 4 -35 13 2 3 -11 7 -29 8 -18 2 -45 10
-61 18 -16 8 -36 15 -44 15 -9 0 -24 6 -35 14 -11 7 -24 15 -30 16 -25 6 -34
13 -29 21 3 5 -1 6 -9 3 -10 -3 -18 4 -25 23 -6 15 -11 22 -11 15 -1 -7 -6
-10 -11 -7 -7 4 -7 13 0 26 7 11 7 19 1 19 -17 0 -23 77 -9 141 7 36 14 54 16
42 2 -14 8 -20 18 -16z"/>
<path d="M961 1703 c-1 -7 -10 -13 -21 -13 -11 0 -20 -4 -20 -10 0 -5 20 -10
45 -10 25 0 45 -4 45 -10 0 -5 -9 -10 -20 -10 -28 0 -29 -65 -1 -73 15 -4 20
2 25 32 11 68 8 81 -18 81 -13 0 -27 6 -29 13 -4 10 -6 10 -6 0z"/>
<path d="M1070 1703 c0 -7 -7 -13 -15 -13 -8 0 -15 -4 -15 -10 0 -5 11 -10 25
-10 27 0 30 7 15 30 -6 10 -10 11 -10 3z"/>
<path d="M920 1631 c0 -11 -3 -27 -6 -36 -5 -13 -2 -16 12 -13 23 4 30 68 8
68 -8 0 -14 -9 -14 -19z"/>
<path d="M850 1564 c0 -4 11 -17 25 -30 14 -13 25 -29 24 -36 0 -7 -5 -3 -11
10 -16 33 -29 27 -17 -8 6 -16 15 -30 19 -30 12 0 19 26 13 48 -5 21 11 37 27
27 6 -4 6 -12 -2 -24 -8 -13 -8 -23 0 -37 10 -16 11 -17 12 -2 0 9 5 20 12 24
8 5 9 2 5 -9 -3 -9 -1 -19 4 -23 6 -3 9 -15 6 -25 -3 -12 4 -24 19 -34 30 -19
34 -19 34 3 0 15 -2 15 -11 2 -9 -12 -10 -11 -6 8 3 12 1 22 -4 22 -14 0 -40
71 -31 86 7 12 11 12 27 -1 20 -14 19 -14 -2 -10 -20 3 -21 2 -11 -23 16 -38
32 -53 19 -19 -15 38 -14 39 9 27 11 -6 20 -15 20 -21 0 -6 -6 -7 -12 -3 -10
6 -10 4 0 -7 6 -7 12 -23 12 -35 0 -17 5 -22 25 -20 30 1 30 1 5 26 -11 11
-20 28 -20 38 0 14 2 15 10 2 5 -8 10 -10 10 -5 0 6 -5 17 -10 25 -9 13 -10
13 -10 0 -1 -8 -10 2 -21 23 -22 41 -30 45 -50 21 -11 -14 -13 -14 -21 0 -12
21 -34 20 -42 0 -6 -16 -8 -16 -24 0 -19 17 -32 21 -32 10z"/>
<path d="M1236 1263 c-3 -7 -15 -13 -26 -13 -13 0 -20 -7 -20 -20 0 -11 -6
-23 -13 -26 -7 -2 -12 -21 -12 -44 0 -23 5 -42 12 -44 7 -3 13 -15 13 -26 0
-13 7 -20 20 -20 10 0 23 -7 28 -16 7 -13 13 -14 29 -6 15 8 23 8 32 -1 10 -9
14 -8 22 6 6 9 19 17 29 17 13 0 20 7 20 20 0 11 6 23 13 26 7 2 12 21 12 44
0 23 -5 42 -12 44 -7 3 -13 15 -13 26 0 13 -7 20 -20 20 -11 0 -23 6 -26 13
-2 7 -21 12 -44 12 -23 0 -42 -5 -44 -12z m94 -18 c24 -13 21 -14 -42 -15 -72
0 -83 5 -45 20 32 13 58 11 87 -5z m-102 -122 c13 -9 14 -12 3 -13 -8 0 -11
-3 -8 -7 6 -5 38 -7 110 -4 18 1 19 3 7 11 -12 8 -13 12 -2 19 15 9 24 61 11
61 -5 0 -9 -11 -9 -25 0 -24 -3 -25 -60 -25 l-60 0 0 41 0 40 70 -2 c56 -2 73
-6 80 -20 17 -31 11 -66 -16 -98 -21 -26 -33 -31 -68 -31 -23 0 -51 7 -63 15
-30 21 -45 79 -30 113 11 26 11 26 15 -17 2 -27 10 -50 20 -58z"/>
<path d="M1240 1170 c0 -14 8 -17 40 -16 30 1 40 5 40 17 0 12 -10 16 -40 16
-31 0 -40 -3 -40 -17z"/>
<path d="M1228 1614 c-33 -17 -48 -43 -48 -79 0 -39 17 -64 39 -58 10 3 22 -1
26 -7 5 -9 1 -10 -14 -5 -24 7 -29 -10 -5 -19 53 -20 126 11 138 60 4 14 2 42
-5 61 -10 32 -12 33 -25 16 -14 -17 -15 -17 -10 2 4 14 -1 25 -15 33 -12 8
-23 11 -26 8 -9 -8 6 -38 15 -32 5 3 7 -6 4 -19 -5 -28 -24 -35 -21 -7 3 33
-2 37 -17 12 -15 -25 -15 -25 -8 -1 4 17 2 22 -7 19 -7 -2 -16 -16 -20 -31
l-7 -27 59 0 c62 0 72 -9 46 -44 -12 -16 -16 -17 -48 -3 -40 17 -74 51 -64 66
3 6 1 11 -6 11 -7 0 -3 9 9 20 12 11 28 20 37 20 8 0 15 5 15 10 0 13 -10 12
-42 -6z m-18 -94 c8 -16 8 -20 -4 -20 -9 0 -14 8 -13 20 1 11 2 20 4 20 1 0 7
-9 13 -20z"/>
<path d="M1053 1250 c0 -25 2 -35 4 -22 2 12 2 32 0 45 -2 12 -4 2 -4 -23z"/>
<path d="M906 1255 c-8 -23 4 -45 25 -45 10 0 19 4 19 9 0 13 -26 32 -34 24
-4 -4 -4 0 0 10 3 9 4 17 1 17 -3 0 -7 -7 -11 -15z"/>
<path d="M855 1250 c-10 -16 14 -50 30 -44 8 4 12 10 9 15 -3 5 -10 7 -15 4
-5 -4 -9 1 -9 10 0 9 5 13 10 10 6 -3 10 -1 10 4 0 14 -27 14 -35 1z"/>
<path d="M970 1249 c0 -5 4 -8 9 -5 5 3 11 -1 14 -9 4 -9 1 -12 -7 -9 -8 3
-17 1 -20 -5 -9 -14 14 -25 26 -13 6 6 17 8 24 5 10 -3 14 2 13 18 0 22 -1 23
-8 4 -8 -19 -8 -19 -15 3 -7 22 -36 31 -36 11z"/>
<path d="M816 1226 c4 -11 1 -22 -7 -27 -8 -5 -9 -9 -4 -9 26 0 35 16 20 36
-14 17 -15 18 -9 0z"/>
<path d="M886 1187 c-17 -13 -18 -14 -2 -20 10 -4 14 -3 11 2 -3 6 3 14 12 20
10 6 13 11 7 11 -5 0 -18 -6 -28 -13z"/>
<path d="M940 1189 c0 -5 4 -8 9 -5 5 4 11 0 14 -6 2 -7 8 -9 13 -5 5 4 2 12
-6 17 -20 13 -30 12 -30 -1z"/>
<path d="M1063 1125 c0 -44 2 -61 4 -37 2 23 2 59 0 80 -2 20 -4 1 -4 -43z"/>
<path d="M842 1181 c-10 -6 -10 -10 2 -20 12 -10 15 -9 13 8 -1 12 -1 21 -2
21 0 0 -6 -4 -13 -9z"/>
<path d="M1000 1175 c0 -8 7 -15 15 -15 8 0 15 7 15 15 0 8 -7 15 -15 15 -8 0
-15 -7 -15 -15z"/>
<path d="M912 1155 c4 -23 29 -27 36 -6 3 9 0 11 -8 6 -7 -4 -16 -2 -22 6 -7
11 -8 9 -6 -6z"/>
<path d="M965 1149 c10 -15 -15 -39 -41 -39 -14 0 -25 8 -29 20 -9 28 -23 25
-21 -4 0 -13 2 -23 4 -21 2 2 16 0 31 -5 31 -9 56 2 71 29 7 14 6 20 -6 25 -9
3 -12 2 -9 -5z"/>
<path d="M1000 1128 c-22 -24 -27 -44 -8 -32 7 4 8 3 4 -4 -4 -6 -13 -9 -20
-6 -7 3 -19 -2 -26 -11 -15 -18 -37 -20 -42 -3 -3 7 -13 13 -24 13 -13 0 -20
8 -22 28 -2 15 -7 25 -11 22 -10 -6 -2 -53 10 -60 4 -3 5 -13 2 -23 -5 -14 -2
-13 11 3 12 14 19 16 22 8 7 -16 50 -17 59 -2 4 6 13 8 20 5 8 -3 19 2 25 9 7
8 16 13 20 10 5 -3 12 0 16 6 4 8 3 9 -5 5 -20 -13 -25 24 -5 39 11 8 14 15 7
15 -7 0 -21 -10 -33 -22z"/>
<path d="M358 1746 c-16 -19 -28 -37 -28 -40 0 -12 28 -6 32 6 3 8 18 1 43
-20 27 -22 42 -29 50 -21 7 7 -2 20 -29 43 -27 22 -36 35 -28 40 12 7 7 26 -6
26 -4 0 -19 -16 -34 -34z"/>
<path d="M1859 1677 c-55 -39 -57 -70 -1 -35 33 21 35 21 28 2 -38 -91 -36
-96 31 -58 61 35 59 32 46 45 -8 8 -20 6 -42 -10 -36 -26 -37 -23 -12 27 17
34 18 63 3 61 -4 0 -28 -14 -53 -32z"/>
<path d="M273 1610 c-14 -26 -18 -42 -11 -46 6 -4 15 0 19 9 8 14 14 13 53 -9
37 -21 45 -22 50 -9 4 11 -7 22 -38 37 -33 16 -42 25 -39 39 9 33 -11 20 -34
-21z"/>
<path d="M1933 1562 c-29 -14 -53 -32 -53 -39 0 -19 14 -16 70 12 35 18 48 29
44 40 -4 8 -7 14 -8 13 0 0 -25 -12 -53 -26z"/>
<path d="M1958 1494 c-34 -26 -45 -39 -41 -54 5 -17 14 -20 70 -20 79 0 84 22
7 30 l-49 5 38 23 c20 13 37 30 37 38 0 21 -10 17 -62 -22z"/>
<path d="M217 1491 c-3 -14 9 -28 44 -55 57 -43 63 -44 55 -12 -7 30 2 56 20
56 8 0 14 7 14 15 0 12 -14 15 -64 15 -54 0 -64 -3 -69 -19z m77 -26 c-5 -13
-9 -13 -23 -3 -9 7 -18 14 -20 15 -2 2 8 3 22 3 20 0 25 -4 21 -15z"/>
<path d="M195 1390 c-4 -6 -10 -24 -15 -39 -8 -29 -7 -29 51 -44 32 -8 61 -12
64 -9 11 11 4 21 -22 30 l-28 9 33 7 c18 4 32 14 32 22 0 10 -7 13 -25 8 -18
-4 -27 -1 -31 10 -7 18 -49 22 -59 6z m45 -35 c0 -8 -9 -15 -20 -15 -13 0 -18
5 -14 15 4 8 12 15 20 15 8 0 14 -7 14 -15z"/>
<path d="M1997 1382 c-52 -13 -58 -17 -53 -36 3 -11 6 -27 6 -33 0 -7 7 -13
15 -13 11 0 14 7 9 25 -5 19 -2 25 10 25 9 0 16 -8 16 -21 0 -11 5 -17 10 -14
6 3 10 15 10 26 0 25 20 25 27 -1 3 -11 9 -20 14 -20 10 0 10 25 1 56 -7 20
-9 20 -65 6z"/>
<path d="M2013 1283 c-58 -4 -75 -29 -25 -35 l27 -4 -27 -14 c-16 -7 -28 -21
-28 -32 0 -17 2 -17 24 -3 20 13 28 14 44 4 34 -21 52 -5 52 46 0 25 -3 44 -7
43 -5 -1 -32 -3 -60 -5z m47 -43 c0 -11 -7 -20 -15 -20 -15 0 -21 21 -8 33 12
13 23 7 23 -13z"/>
<path d="M228 1262 c-80 -22 -83 -44 -11 -77 65 -29 63 -29 63 -10 0 8 -4 15
-10 15 -5 0 -10 11 -10 25 0 16 6 25 15 25 8 0 15 9 15 20 0 11 -1 19 -2 19
-2 -1 -29 -9 -60 -17z m14 -44 c-6 -6 -19 -7 -29 -3 -17 7 -17 8 2 15 24 9 41
2 27 -12z"/>
<path d="M1977 1156 c-20 -20 -22 -47 -5 -64 20 -20 48 -14 58 12 14 39 33 44
25 7 -8 -36 8 -42 25 -11 16 30 3 60 -25 60 -17 0 -29 -9 -41 -31 -12 -24 -18
-29 -24 -18 -5 8 -4 19 2 26 17 21 4 38 -15 19z"/>
<path d="M198 1133 c-25 -3 -38 -9 -38 -19 0 -12 10 -13 50 -8 l50 7 -6 -32
c-6 -26 -4 -30 10 -25 26 10 32 55 11 71 -11 7 -24 12 -29 11 -6 -1 -28 -3
-48 -5z"/>
<path d="M1954 1049 c-8 -14 -6 -15 59 -26 48 -8 60 -8 64 4 3 8 4 15 2 17
-11 9 -120 13 -125 5z"/>
<path d="M215 1030 c-27 -3 -40 -10 -40 -20 0 -8 5 -14 10 -14 6 1 26 4 46 8
29 5 38 3 43 -10 8 -20 -9 -34 -41 -34 -33 0 -52 -10 -47 -24 4 -10 17 -11 55
-3 56 11 74 35 56 74 -11 25 -28 30 -82 23z"/>
<path d="M2046 974 c-3 -9 -13 -14 -20 -11 -8 3 -31 9 -50 13 -29 5 -36 3 -36
-9 0 -11 14 -18 45 -23 35 -5 45 -10 45 -25 0 -19 15 -26 23 -11 2 4 7 24 11
45 7 37 -6 52 -18 21z"/>
<path d="M250 905 c0 -2 5 -16 12 -30 13 -30 32 -34 23 -5 -8 25 11 27 24 2
12 -23 -4 -52 -29 -52 -21 0 -35 17 -35 42 0 30 -20 25 -23 -5 -7 -58 57 -88
98 -47 40 40 14 100 -43 100 -15 0 -27 -2 -27 -5z"/>
<path d="M1910 871 c0 -10 88 -101 97 -101 10 0 1 36 -14 52 -15 17 -14 18 15
18 22 0 32 5 32 15 0 12 -11 15 -47 13 -27 -1 -56 2 -65 6 -11 5 -18 4 -18 -3z"/>
<path d="M360 794 c0 -14 46 -80 98 -142 43 -50 44 -53 26 -67 -10 -8 -22 -15
-25 -15 -9 0 -82 89 -114 140 -16 25 -30 47 -32 49 -2 2 -5 2 -8 -1 -7 -6 86
-136 119 -167 24 -23 35 -51 19 -51 -12 0 -82 83 -125 148 -22 34 -43 60 -46
57 -8 -8 81 -135 122 -174 34 -33 35 -36 29 -91 -7 -75 21 -130 82 -160 53
-25 88 -25 142 1 l43 21 67 -27 c37 -15 97 -34 133 -43 54 -12 69 -20 78 -41
40 -90 205 -98 259 -13 10 15 20 29 23 32 3 3 5 11 5 19 0 10 30 22 91 37 50
12 106 29 124 39 23 12 35 14 43 6 14 -14 -41 -37 -155 -65 -48 -11 -88 -24
-88 -28 0 -10 129 22 195 48 57 23 61 23 105 7 107 -38 209 29 212 140 2 37
10 50 69 115 66 70 137 172 121 172 -4 0 -27 -28 -50 -62 -42 -64 -132 -168
-145 -168 -18 0 -3 30 34 65 49 48 142 176 133 184 -4 3 -9 1 -11 -6 -7 -19
-119 -166 -146 -191 -41 -39 -42 -6 -1 35 48 50 136 175 128 182 -4 3 -9 0
-11 -7 -14 -38 -148 -202 -165 -202 -16 0 -7 17 33 60 49 54 123 160 116 167
-3 2 -21 -19 -40 -49 -19 -29 -55 -76 -81 -105 l-47 -52 -42 15 c-23 8 -55 13
-72 10 -74 -14 -135 -80 -135 -147 0 -35 -2 -37 -57 -58 -32 -11 -80 -26 -106
-32 l-48 -12 -31 37 c-16 20 -43 43 -58 51 -61 31 -151 9 -193 -47 -25 -34
-35 -34 -123 -4 -116 40 -121 43 -127 90 -10 74 -108 139 -182 120 -32 -8 -49
7 -117 101 -63 86 -68 92 -68 79z m272 -230 c4 -3 6 -10 2 -15 -4 -6 -11 -6
-20 2 -16 13 -18 1 -4 -21 9 -13 12 -13 21 3 14 24 26 21 46 -9 16 -25 27
-128 12 -118 -4 2 -9 -3 -13 -11 -8 -22 -67 -55 -99 -55 -64 0 -117 54 -117
120 0 43 27 93 46 86 9 -3 12 -2 9 5 -4 6 2 13 14 16 11 3 19 9 16 13 -5 8 71
-6 87 -16z m1011 -20 c-3 -8 -9 -14 -14 -14 -5 0 -9 -4 -9 -10 0 -16 29 1 35
21 8 25 19 24 50 -6 30 -31 31 -42 6 -50 -12 -3 -21 -17 -23 -33 -4 -22 -6
-24 -12 -9 -5 9 -5 25 -1 35 3 9 6 19 6 22 1 3 4 10 9 15 4 6 1 16 -7 24 -13
12 -14 11 -8 -9 5 -15 3 -20 -3 -16 -14 8 -25 -11 -26 -45 -1 -29 19 -43 56
-40 21 2 33 -18 19 -32 -8 -8 -14 -8 -23 1 -15 15 -32 16 -23 1 4 -6 0 -9 -11
-7 -14 2 -19 -3 -19 -22 0 -30 -28 -35 -33 -5 -3 16 -1 17 7 5 7 -9 11 -10 11
-3 0 6 -5 15 -11 19 -8 4 -7 9 2 16 11 8 11 9 -1 5 -8 -2 -16 -13 -18 -25 -2
-14 -11 -22 -23 -22 -47 0 3 59 53 61 18 1 19 2 5 6 -10 3 -26 2 -35 -2 -9 -3
-18 -5 -19 -3 -1 2 -8 -6 -16 -16 -9 -12 -20 -17 -31 -13 -22 9 -20 28 3 34
11 3 22 11 25 19 4 11 2 11 -14 2 -15 -9 -22 -10 -31 -1 -16 16 0 36 25 29 19
-5 19 -4 -4 14 -21 16 -22 21 -10 29 18 12 36 2 19 -11 -11 -8 -10 -9 3 -5 9
3 19 3 23 -1 4 -4 11 -8 16 -8 5 -1 13 -2 19 -3 5 0 7 -8 4 -16 -4 -9 0 -15
10 -15 22 0 20 17 -4 32 -13 9 -18 20 -15 38 5 23 4 23 -6 -3 -10 -26 -12 -27
-25 -10 -20 27 -17 43 10 43 14 0 28 5 31 10 10 16 35 -8 28 -26z m95 -87 c2
-12 -3 -17 -17 -17 -12 0 -21 6 -21 13 0 31 32 34 38 4z m-810 -87 c13 0 22
-6 22 -15 0 -12 -7 -14 -27 -9 -25 7 -129 41 -178 59 -14 6 -17 5 -10 -3 10
-10 138 -56 188 -67 29 -6 38 -25 11 -25 -21 0 -196 59 -207 69 -4 5 -5 19 -2
33 l6 25 87 -33 c48 -18 97 -33 110 -34z m115 46 c3 -8 15 -12 29 -9 34 6 51
-18 46 -67 -4 -45 12 -59 31 -28 11 18 11 20 -3 15 -9 -4 -16 -2 -16 3 0 6 8
11 18 11 16 1 16 2 0 6 -23 6 -24 21 -2 19 9 0 19 6 21 14 4 12 3 13 -5 1 -8
-11 -14 -10 -33 8 -12 11 -19 21 -13 22 5 0 0 4 -11 9 -18 8 -17 9 8 9 27 1
67 -29 67 -50 0 -5 4 -8 9 -5 4 3 5 -13 1 -37 -5 -23 -6 -45 -3 -50 2 -4 -1
-6 -8 -5 -6 2 -24 -17 -38 -42 -18 -29 -35 -45 -48 -46 -13 -1 -19 4 -16 11 2
7 -1 16 -6 20 -6 3 -9 11 -6 16 4 5 1 9 -6 9 -7 0 -9 3 -5 7 4 4 22 6 41 5 18
-2 36 1 40 7 3 7 0 8 -9 5 -9 -4 -16 -1 -16 6 0 8 -4 9 -12 4 -7 -5 -20 -9
-28 -8 -8 1 -20 2 -26 3 -6 0 -17 14 -24 31 -12 30 -30 32 -30 4 0 -9 5 -12
11 -8 8 4 9 -1 4 -17 -4 -13 -4 -21 0 -17 5 4 14 3 22 -3 11 -10 10 -14 -7
-26 -11 -8 -25 -11 -31 -7 -8 4 -7 9 2 15 11 6 9 12 -5 28 -18 20 -18 22 -1
47 12 19 14 29 6 34 -9 5 -7 11 4 20 14 12 18 12 25 0 4 -7 6 -19 3 -26 -2 -7
0 -20 5 -30 7 -13 9 -11 9 12 0 16 3 38 8 48 6 14 5 17 -3 12 -17 -10 -32 2
-25 19 7 19 19 19 26 1z m441 -18 c3 -13 6 -26 6 -30 0 -8 -136 -52 -192 -62
-30 -5 -38 -4 -38 8 0 8 -3 21 -6 30 -5 12 1 16 22 16 16 0 65 13 109 29 44
15 83 29 86 30 4 0 9 -9 13 -21z m199 -16 c2 7 8 10 13 5 4 -4 1 -15 -8 -23
-15 -15 -17 -14 -29 7 -11 21 -11 23 3 11 13 -10 17 -10 21 0z m-909 -36 c34
-14 84 -30 111 -37 51 -12 73 -24 63 -35 -14 -13 -248 69 -248 87 0 13 7 12
74 -15z m449 -81 c-1 -5 -7 -11 -14 -14 -8 -2 -9 1 -3 10 7 12 5 12 -9 0 -12
-9 -17 -10 -17 -2 0 7 -5 9 -12 5 -6 -4 -8 -3 -5 3 8 13 63 11 60 -2z m-23
-32 c0 -17 -15 -16 -30 1 -9 12 -8 15 9 13 12 -1 21 -7 21 -14z m-146 -20 c4
-9 4 -18 1 -21 -3 -3 -5 0 -5 7 0 7 -6 11 -13 8 -7 -3 -13 3 -13 13 0 21 22
16 30 -7z m122 -4 c4 -7 1 -10 -7 -7 -8 3 -20 -2 -27 -11 -11 -14 -11 -13 -2
7 12 24 25 28 36 11z"/>
<path d="M527 537 c-21 -33 -22 -67 -2 -67 8 0 15 9 15 20 0 11 -5 20 -12 20
-6 0 -4 6 6 13 11 8 17 20 14 27 -2 8 -10 4 -21 -13z"/>
<path d="M567 553 c-16 -15 -6 -43 14 -43 15 0 19 4 15 16 -3 9 -6 20 -6 25 0
11 -14 12 -23 2z"/>
<path d="M655 505 c4 -16 11 -34 16 -39 15 -16 10 16 -7 44 l-15 25 6 -30z"/>
<path d="M480 499 c-11 -19 -7 -39 5 -27 7 7 15 48 10 48 -2 0 -9 -9 -15 -21z"/>
<path d="M623 513 c-20 -7 -15 -40 7 -46 17 -4 19 -1 15 20 -5 30 -6 32 -22
26z"/>
<path d="M550 481 c0 -14 6 -17 25 -13 14 2 25 11 25 18 0 8 -10 14 -25 14
-18 0 -25 -5 -25 -19z"/>
<path d="M470 443 c1 -13 29 -59 30 -48 0 21 -13 55 -21 55 -5 0 -9 -3 -9 -7z"/>
<path d="M507 426 c3 -16 10 -23 19 -19 21 8 17 43 -5 43 -14 0 -17 -6 -14
-24z"/>
<path d="M550 435 c0 -9 9 -15 25 -15 16 0 25 6 25 15 0 9 -9 15 -25 15 -16 0
-25 -6 -25 -15z"/>
<path d="M613 431 c-1 -11 5 -22 13 -25 8 -3 14 -1 14 3 0 5 3 16 6 25 4 11 0
16 -13 16 -11 0 -19 -8 -20 -19z"/>
<path d="M660 436 c0 -8 -3 -23 -6 -33 -5 -16 -4 -16 10 1 18 22 21 46 6 46
-5 0 -10 -6 -10 -14z"/>
<path d="M565 399 c-8 -12 4 -51 15 -44 15 9 18 44 4 49 -7 3 -16 1 -19 -5z"/>
<path d="M519 383 c-7 -10 -9 -15 -5 -11 5 4 15 3 23 -3 14 -13 17 -1 4 19 -6
10 -11 9 -22 -5z"/>
<path d="M606 384 c-9 -23 -2 -28 13 -10 7 8 8 17 3 20 -6 3 -13 -1 -16 -10z"/>
<path d="M1590 472 c0 -7 -1 -15 -2 -19 -2 -3 5 -7 15 -9 15 -2 16 0 5 14 -7
9 -14 19 -15 21 -2 2 -3 -1 -3 -7z"/>
<path d="M1070 390 c-8 -5 -10 -10 -5 -10 6 0 3 -5 -5 -10 -12 -8 -12 -10 5
-11 17 -1 16 -2 -5 -9 -16 -5 -19 -8 -8 -9 9 -1 20 -6 24 -13 5 -8 2 -9 -9 -5
-18 7 -22 -1 -9 -18 20 -28 32 -13 32 40 0 30 -1 55 -2 55 -2 0 -10 -5 -18
-10z"/>
<path d="M1430 379 c-14 -6 -56 -19 -95 -29 -40 -11 -58 -19 -43 -19 27 -1
188 46 188 54 0 8 -23 5 -50 -6z"/>
<path d="M331 777 c-2 -17 128 -187 142 -187 4 0 -19 33 -50 73 -32 40 -66 84
-75 97 -9 14 -17 21 -17 17z"/>
</g>
</svg>
