 <svg  version="1.0" xmlns="http://www.w3.org/2000/svg"  width="300.000000pt" height="300.000000pt" viewBox="0 0 300.000000 300.000000"  preserveAspectRatio="xMidYMid meet">  <g transform="translate(0.000000,300.000000) scale(0.100000,-0.100000)" fill="#ff0000" stroke="none"> <path d="M1330 2991 c-578 -62 -1079 -473 -1258 -1031 -53 -165 -66 -255 -66 -460 0 -205 13 -295 66 -460 167 -522 608 -910 1153 -1016 126 -24 425 -24 550 0 547 107 986 494 1153 1016 53 165 66 255 66 460 0 205 -13 295 -66 460 -147 458 -510 821 -968 968 -52 17 -133 38 -179 46 -100 19 -344 28 -451 17z m470 -44 c286 -60 537 -196 744 -403 206 -207 340 -454 404 -744 21 -100 25 -140 25 -300 0 -160 -4 -200 -25 -300 -129 -591 -579 -1034 -1170 -1152 -150 -30 -387 -32 -533 -4 -204 38 -401 117 -562 225 -332 224 -548 545 -631 936 -35 166 -37 407 -4 570 60 301 192 550 405 765 236 239 526 381 874 429 112 16 342 5 473 -22z"/> <path d="M1255 2924 c-307 -57 -561 -189 -775 -404 -225 -224 -364 -502 -410 -818 -18 -119 -7 -402 18 -512 137 -585 596 -1020 1180 -1116 138 -22 417 -15 542 14 565 132 982 555 1106 1123 15 67 19 126 19 289 0 163 -4 222 -19 289 -124 568 -540 990 -1106 1123 -116 27 -438 34 -555 12z m338 -22 c16 -4 14 -8 -12 -34 -17 -17 -31 -35 -31 -40 0 -5 -11 -33 -24 -61 -13 -29 -29 -66 -37 -83 -22 -53 -42 -58 -79 -19 -30 31 -31 35 -20 68 7 18 10 45 7 59 -10 39 -46 78 -72 78 -32 0 -42 18 -13 25 54 12 244 17 281 7z m212 -25 c78 -17 100 -24 132 -40 l23 -10 -23 -11 c-15 -8 -24 -24 -28 -51 -4 -22 -18 -68 -33 -102 -31 -75 -36 -100 -25 -131 11 -28 -11 -40 -44 -24 -12 6 -34 13 -49 16 -22 5 -27 12 -27 34 1 15 -11 68 -25 117 -15 50 -33 114 -42 143 -8 29 -22 56 -30 59 -8 3 -14 10 -14 15 0 13 89 5 185 -15z m-639 -30 l-24 -24 19 -56 c24 -71 36 -167 21 -167 -6 0 -35 28 -63 63 -62 74 -117 127 -134 127 -6 0 -20 -9 -30 -20 -16 -17 -17 -33 -13 -129 5 -106 5 -111 -18 -132 -13 -12 -24 -27 -24 -32 0 -18 -32 -46 -46 -40 -19 7 -99 121 -111 158 -9 26 -15 30 -46 30 -44 0 -45 3 -9 31 75 59 267 152 392 190 101 31 116 31 86 1z m482 -92 c33 -149 41 -175 57 -175 8 0 15 -5 15 -11 0 -7 -16 -8 -47 -3 -50 7 -69 14 -39 14 15 0 16 6 11 33 -13 63 -14 65 -56 69 -35 3 -42 0 -54 -22 -24 -48 -28 -70 -11 -70 9 0 16 -3 16 -7 0 -5 -28 -7 -62 -6 -35 1 -69 2 -75 3 -7 0 -34 23 -60 50 -28 30 -56 50 -69 50 -20 0 -21 -3 -13 -46 10 -54 16 -64 35 -64 8 0 12 -4 9 -10 -3 -5 -21 -10 -38 -10 -18 -1 -57 -9 -87 -20 -67 -24 -76 -24 -60 -5 11 13 9 20 -11 43 -13 15 -26 31 -30 35 -3 4 -23 0 -43 -10 -35 -16 -37 -19 -34 -63 2 -36 7 -45 21 -44 25 2 21 -13 -5 -21 -25 -8 -159 -96 -195 -128 -13 -11 -26 -17 -30 -12 -5 4 -2 10 5 12 19 7 14 26 -20 74 -112 155 -108 150 -128 139 -37 -20 -20 6 25 38 24 17 47 27 50 22 4 -6 1 -10 -4 -10 -23 0 -8 -36 51 -121 38 -55 68 -89 79 -89 10 0 32 12 49 26 24 21 30 32 26 50 -3 12 -2 25 3 28 5 3 12 -6 15 -20 6 -22 9 -24 22 -13 13 11 14 33 8 154 -4 83 -3 145 3 148 5 3 44 -37 87 -88 102 -122 108 -127 140 -119 32 8 32 16 9 148 -13 78 -21 100 -35 104 -34 9 -18 18 52 30 60 10 75 10 100 -3 41 -21 49 -68 20 -108 l-23 -30 56 -54 c77 -74 87 -69 157 83 65 140 70 148 80 137 3 -4 17 -53 28 -108z m414 38 c24 -9 51 -23 61 -31 16 -14 16 -16 -5 -26 -15 -8 -25 -26 -33 -66 -14 -74 -54 -144 -83 -148 -28 -4 -52 14 -52 38 0 26 48 130 76 163 26 31 21 56 -14 76 -27 16 3 13 50 -6z m-78 -13 c46 -21 64 -43 26 -33 -16 4 -25 -7 -54 -70 -52 -114 -53 -131 -18 -167 33 -33 48 -36 87 -18 18 8 38 37 66 93 44 92 46 102 22 121 -17 12 -17 13 -1 14 9 0 19 -4 23 -9 3 -5 19 -12 35 -16 17 -4 30 -11 30 -17 0 -6 -9 -8 -21 -5 -18 5 -26 -6 -59 -77 -57 -123 -109 -158 -180 -121 -38 19 -60 52 -60 88 0 16 16 65 35 108 36 83 42 109 25 109 -5 0 -10 5 -10 10 0 13 0 13 54 -10z m243 -71 c21 -12 40 -23 41 -24 2 -2 -8 -14 -22 -26 -14 -12 -26 -32 -26 -43 0 -35 -130 -180 -146 -164 -2 3 4 13 14 24 18 20 67 114 64 125 0 3 12 19 28 34 34 33 37 51 13 77 -21 24 -12 23 34 -3z m-624 -80 c3 -12 3 -35 0 -51 -4 -22 -10 -28 -27 -26 -17 2 -21 9 -20 36 1 18 5 39 8 47 8 22 33 18 39 -6z m674 -1 c22 -20 23 -28 23 -162 l1 -141 34 40 c70 80 89 113 75 130 -24 29 -1 28 34 -1 39 -32 46 -48 17 -39 -15 4 -37 -17 -107 -101 l-89 -107 -3 54 c-2 29 -2 100 0 156 2 57 1 103 -2 103 -9 -1 -115 -140 -118 -155 -2 -9 2 -22 8 -30 23 -27 -5 -15 -45 21 -36 31 -37 34 -14 29 22 -6 34 4 97 80 71 86 82 108 62 120 -11 7 -14 25 -3 25 4 0 17 -10 30 -22z m102 -25 c49 -41 82 -76 75 -82 -2 -2 -10 2 -19 9 -13 11 -19 10 -35 -5 -11 -10 -20 -25 -20 -34 0 -9 -8 -27 -17 -40 l-16 -24 -9 22 c-4 12 -7 51 -7 85 1 35 -2 73 -6 85 -9 30 1 26 54 -16z m-1748 -16 c-23 -25 -20 -57 5 -57 14 0 104 -116 104 -135 0 -6 -9 -18 -20 -28 -12 -10 -20 -29 -20 -48 0 -36 -39 -79 -71 -79 -29 0 -74 26 -98 56 -41 53 -18 105 54 123 34 8 45 16 45 31 0 28 -60 71 -90 63 l-24 -6 25 26 c30 32 89 77 103 77 5 0 0 -11 -13 -23z m721 -16 c15 -18 15 -19 -3 -24 -10 -3 -19 -1 -19 3 0 5 -3 15 -6 24 -8 22 8 20 28 -3z m-265 -47 c15 -31 15 -36 3 -44 -8 -6 -18 -10 -22 -10 -11 0 -34 54 -30 73 6 29 31 19 49 -19z m664 -32 c206 -55 388 -169 523 -328 74 -87 103 -134 84 -134 -8 0 -22 14 -32 30 -67 115 -235 262 -379 333 -168 82 -318 113 -502 103 -183 -10 -343 -62 -495 -161 -86 -56 -221 -187 -265 -258 -17 -26 -36 -47 -42 -47 -19 0 -17 6 29 68 154 210 389 360 641 408 104 20 339 12 438 -14z m-1131 -48 c0 -3 -15 -2 -34 1 -42 8 -71 -6 -91 -45 -46 -89 26 -190 135 -190 33 0 48 6 72 30 27 28 30 36 25 75 -5 50 4 58 21 20 18 -39 15 -48 -29 -98 -54 -62 -101 -77 -164 -53 -79 31 -121 112 -96 189 7 20 32 54 57 77 l45 41 29 -21 c17 -12 30 -24 30 -26z m1124 12 c212 -54 389 -169 528 -345 33 -40 58 -74 56 -75 -2 -1 -44 0 -95 2 -76 3 -91 6 -86 19 4 9 14 13 30 10 22 -4 23 -3 7 14 -14 16 -15 21 -3 35 12 15 11 16 -9 10 -17 -6 -27 -3 -38 11 -14 17 -14 17 -12 -4 2 -13 -5 -28 -17 -37 -20 -15 -20 -15 3 -16 15 0 22 -6 22 -20 0 -18 -7 -20 -87 -20 -133 -1 -289 -17 -321 -34 -37 -19 -43 -35 -36 -90 6 -37 3 -46 -13 -55 -30 -16 -58 20 -81 105 -25 91 -37 113 -68 124 -41 16 -76 11 -134 -18 -45 -22 -56 -33 -58 -56 -2 -15 -1 -35 3 -44 6 -16 7 -16 16 1 11 18 36 22 57 9 10 -7 9 -18 -6 -53 -11 -24 -28 -52 -38 -61 -16 -14 -22 -15 -38 -3 -15 11 -17 22 -12 54 8 50 1 68 -36 87 -41 21 -241 36 -438 32 -110 -2 -166 0 -162 7 3 6 27 38 54 72 154 196 386 327 640 363 96 13 267 2 372 -24z m817 -28 c52 -69 55 -75 18 -40 -42 38 -72 41 -87 8 -12 -27 -149 -142 -158 -133 -9 9 82 123 127 159 27 22 39 38 36 50 -8 28 26 5 64 -44z m-331 -69 l0 -91 -40 32 c-40 32 -47 44 -31 54 5 3 12 18 16 33 7 29 32 63 47 63 4 0 8 -41 8 -91z m-1786 49 c-13 -20 -18 -48 -18 -99 -1 -89 88 -173 177 -167 26 2 47 -1 47 -6 0 -19 -42 -75 -61 -81 -12 -4 -36 -4 -55 0 -22 4 -34 2 -34 -5 0 -6 -6 -10 -12 -9 -24 3 -41 -1 -34 -8 4 -4 177 -10 384 -13 347 -5 380 -7 417 -25 39 -20 40 -21 37 -70 -2 -43 1 -53 23 -70 21 -18 23 -24 13 -38 -12 -16 -15 -15 -40 8 -23 21 -28 35 -28 70 0 81 -5 82 -520 105 -129 6 -247 13 -262 16 -22 5 -28 3 -28 -10 0 -10 5 -14 10 -11 6 3 10 2 10 -3 0 -20 -57 -32 -154 -32 -85 0 -108 -3 -126 -18 -19 -15 -20 -21 -10 -42 6 -14 30 -38 53 -55 72 -51 157 -124 157 -135 0 -15 -25 -17 -94 -9 -84 10 -95 19 -71 55 17 27 17 28 -5 46 -26 21 -60 23 -79 6 -11 -11 -12 -6 -7 28 15 105 109 325 188 444 40 58 120 152 125 146 3 -3 1 -11 -3 -18z m2176 -125 c23 -40 25 -50 6 -34 -10 9 -27 -7 -80 -75 -37 -47 -66 -87 -64 -89 2 -2 170 26 205 35 1 0 3 10 5 23 3 20 5 18 26 -16 24 -42 30 -69 10 -49 -16 16 -73 14 -203 -7 -60 -10 -112 -17 -114 -15 -3 2 7 17 21 32 13 15 56 67 93 116 55 70 66 92 58 105 -19 30 -51 17 -137 -57 -76 -64 -85 -75 -76 -92 18 -33 -3 -22 -39 21 -32 39 -37 65 -7 40 11 -10 31 2 106 64 83 70 91 79 85 103 -5 24 0 21 40 -22 25 -27 54 -65 65 -83z m67 -20 c20 -27 65 -114 60 -119 -2 -3 -10 2 -17 11 -16 20 -38 19 -75 -3 -37 -22 -85 -27 -85 -9 0 7 20 33 45 57 25 24 45 52 45 62 0 23 9 23 27 1z m-177 -16 c0 -2 -25 -37 -55 -77 -30 -40 -55 -77 -55 -81 0 -5 -7 -6 -15 -3 -18 7 -19 29 -2 51 39 52 127 128 127 110z m-976 -183 c9 -8 23 -41 32 -72 8 -31 20 -70 25 -86 12 -38 12 -83 -1 -91 -6 -3 -13 1 -17 11 -6 15 -7 15 -20 -2 -11 -15 -15 -16 -22 -5 -7 11 -11 10 -20 -5 -11 -19 -11 -19 -22 0 -9 15 -13 16 -20 5 -7 -11 -11 -10 -22 5 -13 17 -14 17 -20 2 -4 -10 -11 -14 -17 -11 -16 10 -11 67 10 114 23 50 15 71 -29 71 -41 0 -56 14 -36 34 21 20 23 20 70 -3 l38 -18 -54 5 c-68 6 -62 -3 9 -12 43 -6 52 -4 52 9 0 8 -4 15 -9 15 -5 0 -22 5 -38 11 -27 10 -27 11 -9 25 27 19 100 18 120 -2z m1140 -9 c17 -13 14 -15 -39 -30 -31 -9 -66 -14 -77 -11 -12 2 -57 1 -102 -4 -45 -5 -207 -14 -361 -20 -337 -13 -347 -16 -355 -97 -4 -38 -12 -56 -30 -72 -31 -26 -36 -26 -43 -1 -3 13 3 24 20 35 21 14 24 22 21 68 -3 52 -3 52 37 72 37 18 71 20 425 26 212 4 387 7 389 8 2 1 1 4 -3 9 -6 5 56 26 94 31 3 0 13 -6 24 -14z m106 -84 c17 -46 29 -85 28 -86 -2 -1 -14 -8 -26 -14 -29 -16 -42 -6 -17 13 17 12 17 17 5 60 -14 51 -13 50 -87 20 -32 -14 -33 -15 -20 -47 8 -17 20 -33 28 -33 33 -3 32 -6 -11 -23 -50 -19 -59 -19 -41 3 15 18 5 76 -12 76 -6 0 -31 -7 -54 -16 -34 -13 -43 -22 -43 -41 0 -38 27 -80 55 -87 31 -8 24 -26 -10 -26 -29 0 -29 0 -65 101 -24 65 -26 80 -14 75 9 -3 67 12 130 35 94 35 114 45 114 62 0 30 6 20 40 -72z m-2171 19 c41 -1 44 -2 28 -14 -18 -14 -18 -15 0 -26 26 -16 -81 -2 -127 17 -28 11 -32 16 -20 24 8 5 28 7 44 4 16 -3 49 -5 75 -5z m1901 0 c20 -12 -36 -35 -110 -45 -49 -6 -53 -5 -36 7 18 15 18 15 0 23 -18 9 -12 10 116 23 8 1 22 -3 30 -8z m-1709 -21 c-15 -6 -21 -14 -17 -25 5 -14 -1 -15 -46 -9 -118 16 -110 45 12 44 57 0 69 -2 51 -10z m1544 2 c3 -6 -2 -14 -12 -19 -24 -13 -132 -26 -115 -14 14 10 3 23 -28 35 -8 3 22 6 67 6 45 1 84 -3 88 -8z m-1420 -11 c-4 -6 9 -17 27 -25 l33 -14 -65 0 c-36 0 -78 6 -95 13 l-30 14 25 10 c33 14 113 15 105 2z m142 3 c-4 -3 1 -12 11 -19 15 -12 11 -13 -30 -14 -54 0 -102 15 -93 30 3 5 31 10 62 10 31 0 53 -3 50 -7z m141 -10 c33 -8 27 -23 -10 -23 -45 0 -108 19 -108 32 0 10 57 6 118 -9z m702 7 c0 -12 -65 -30 -107 -30 -45 0 -42 18 5 25 20 4 42 8 47 10 21 7 55 5 55 -5z m135 0 c9 -15 -39 -30 -93 -30 -41 1 -45 2 -30 14 10 7 15 16 11 19 -3 4 19 7 50 7 31 0 59 -5 62 -10z m140 -3 c17 -13 16 -15 -15 -25 -18 -7 -60 -12 -94 -12 l-61 1 33 14 c18 8 31 19 27 25 -9 15 88 12 110 -3z m-1686 -56 c-12 -40 -33 -58 -27 -23 2 14 -6 18 -43 20 -45 3 -47 1 -58 -29 -17 -48 -14 -56 26 -83 34 -23 37 -24 49 -8 17 21 17 10 2 -39 -12 -41 -28 -52 -28 -20 0 13 -38 49 -110 106 -60 47 -110 91 -110 96 0 5 61 9 144 9 92 0 147 4 151 11 14 22 16 0 4 -40z m2244 32 c9 -9 -13 -34 -24 -27 -14 8 -11 34 4 34 8 0 17 -3 20 -7z m-2064 -19 c-10 -13 -10 -17 2 -25 20 -13 -46 -12 -96 2 l-39 11 24 14 c14 7 47 13 74 14 43 0 47 -2 35 -16z m1748 5 c25 -9 26 -11 10 -20 -25 -14 -137 -24 -118 -11 12 9 12 13 2 26 -12 14 -8 16 32 16 25 0 58 -5 74 -11z m-1583 -5 c25 -4 46 -11 46 -15 0 -12 -187 -11 -194 0 -12 19 60 27 148 15z m237 -8 c-10 -11 -9 -16 5 -24 14 -8 10 -11 -19 -16 -20 -4 -47 -4 -62 0 -20 5 -23 9 -14 20 11 13 58 31 88 33 10 1 11 -2 2 -13z m163 0 c-6 -17 -92 -31 -124 -21 -17 5 -19 10 -9 21 16 20 141 20 133 0z m646 4 c13 -9 13 -11 0 -20 -28 -18 -130 -6 -130 16 0 17 106 20 130 4z m109 -18 l25 -15 -24 -9 c-14 -5 -42 -6 -64 -2 -32 5 -36 8 -22 16 14 8 15 12 4 25 -11 14 -9 15 22 8 19 -4 46 -14 59 -23z m295 22 c9 -3 13 -10 10 -15 -7 -12 -194 -12 -194 0 0 16 151 28 184 15z m-1317 -22 c-23 -25 -21 -32 6 -32 18 0 19 -2 7 -10 -22 -14 -124 -12 -139 3 -10 10 -14 9 -22 -5 -8 -14 -23 -18 -67 -18 -69 0 -93 11 -60 28 28 14 148 21 148 8 0 -4 8 -5 18 -1 21 10 116 44 121 45 2 0 -3 -8 -12 -18z m1155 -26 c10 -7 15 -16 11 -19 -10 -11 -121 -8 -128 3 -3 6 1 10 9 10 20 0 20 9 0 32 -16 17 -15 17 37 2 30 -9 62 -22 71 -28z m737 -21 c13 -51 6 -76 -14 -49 -12 16 -16 17 -66 2 -30 -9 -73 -19 -96 -22 -40 -6 -46 -3 -84 35 -41 41 -48 71 -17 77 12 2 18 -5 20 -24 4 -38 37 -48 84 -24 28 15 41 17 51 9 19 -16 60 -2 79 26 21 32 29 26 43 -30z m-2299 26 c0 -5 -7 -28 -16 -52 -138 -389 6 -854 344 -1110 123 -93 350 -189 446 -189 18 0 41 -7 52 -16 18 -14 15 -15 -39 -9 -285 31 -580 229 -738 496 -140 236 -176 548 -93 810 14 44 29 79 34 79 6 0 10 -4 10 -9z m670 -5 c0 -14 -68 -36 -111 -36 -21 0 -21 1 -4 19 11 13 34 21 64 24 25 2 47 4 49 5 1 1 2 -4 2 -12z m636 -17 c16 -18 16 -19 -5 -19 -39 0 -111 22 -111 34 0 19 96 7 116 -15z m422 9 c33 -17 9 -28 -59 -28 -48 0 -59 4 -71 23 l-15 22 61 -3 c33 -2 71 -8 84 -14z m176 -57 c82 -260 47 -570 -90 -805 -158 -269 -415 -445 -728 -500 -54 -9 -76 -10 -73 -2 2 6 26 15 53 19 170 30 341 102 466 196 276 210 427 557 389 897 -7 59 -23 141 -36 183 -28 86 -29 91 -15 91 5 0 20 -35 34 -79z m-1805 53 c-10 -13 -10 -17 2 -25 26 -17 80 -21 130 -12 36 8 47 7 40 0 -22 -22 -12 -37 24 -37 24 0 35 -5 35 -15 0 -9 9 -15 25 -15 23 0 25 -2 14 -21 -11 -21 -10 -22 39 -17 l49 5 -16 -28 c-20 -35 -9 -46 30 -32 l30 11 -7 -34 -6 -35 36 15 36 15 0 -35 0 -35 30 16 c29 15 30 15 30 -9 0 -23 -4 -25 -74 -31 -44 -4 -95 -3 -126 4 -63 14 -80 4 -80 -45 0 -47 62 -284 100 -379 75 -191 202 -408 310 -527 60 -67 56 -69 -66 -37 -98 25 -246 94 -328 153 -87 62 -204 189 -264 286 -96 155 -142 323 -142 515 0 121 8 180 42 293 l21 72 50 0 c44 0 48 -2 36 -16z m1769 -56 c34 -113 42 -172 42 -293 0 -263 -90 -491 -269 -678 -116 -121 -246 -205 -400 -257 -68 -23 -191 -50 -191 -43 0 3 21 28 46 57 164 181 308 463 379 742 54 209 49 232 -48 213 -33 -7 -82 -9 -121 -4 -61 6 -66 8 -66 31 0 24 1 24 30 9 l30 -16 0 35 0 35 36 -15 36 -15 -6 35 -7 34 30 -11 c39 -14 50 -3 30 32 l-16 28 49 -5 c48 -5 50 -4 39 16 -10 18 -8 21 17 24 15 2 26 8 25 16 -2 8 9 12 32 12 36 0 46 15 24 37 -7 7 4 8 40 0 50 -9 104 -5 130 12 12 8 12 12 2 25 -12 14 -8 16 36 16 l50 0 21 -72z m-1961 50 c17 -2 25 -28 13 -44 -13 -15 -61 -2 -81 23 -16 19 6 36 36 27 11 -3 25 -6 32 -6z m625 0 c-17 -17 -15 -28 6 -28 14 0 15 -2 2 -10 -20 -13 -80 -13 -80 0 0 6 15 19 33 30 36 22 58 27 39 8z m827 -2 c15 -8 33 -22 40 -30 12 -14 9 -16 -25 -16 -22 0 -46 5 -54 10 -13 8 -12 10 3 10 20 0 22 11 5 28 -16 16 -3 15 31 -2z m-539 -20 c0 -14 4 -27 10 -31 11 -7 2 -35 -11 -35 -5 0 -9 10 -9 22 0 20 -1 21 -20 3 -24 -22 -26 -6 -5 35 19 36 35 39 35 6z m253 -5 c24 -40 22 -59 -3 -36 -19 18 -20 17 -20 -3 0 -23 -14 -29 -26 -11 -3 6 -1 16 5 22 6 6 11 21 11 34 0 31 12 29 33 -6z m-627 -6 c-9 -14 -12 -25 -6 -25 5 0 10 -4 10 -9 0 -10 -89 -26 -97 -17 -10 10 17 34 60 55 53 26 53 26 33 -4z m238 16 c7 -10 -71 -51 -98 -51 -30 0 -2 33 41 46 50 15 51 16 57 5z m559 -8 c33 -7 59 -43 31 -43 -28 0 -105 41 -98 52 3 5 13 6 23 3 9 -4 29 -9 44 -12z m242 -27 c17 -13 27 -27 23 -31 -9 -9 -98 5 -98 16 0 5 5 9 11 9 7 0 5 9 -5 24 -16 25 -16 25 12 15 15 -5 41 -20 57 -33z m-1115 13 c-26 -19 -90 -26 -90 -9 0 15 26 25 72 27 l42 1 -24 -19z m1200 6 c20 -12 9 -25 -21 -25 -17 0 -42 9 -55 19 l-25 20 45 -4 c25 -2 50 -7 56 -10z m-871 -31 c-25 -27 -78 -59 -85 -51 -11 11 12 39 45 57 53 28 70 25 40 -6z m173 -26 c-15 -15 -27 14 -17 40 6 15 8 15 18 -6 7 -16 7 -26 -1 -34z m138 22 c0 -22 -16 -35 -25 -20 -9 14 4 52 16 45 5 -4 9 -15 9 -25z m191 10 c38 -20 58 -44 46 -57 -8 -7 -68 30 -92 57 -23 26 -6 26 46 0z m-1563 0 c6 0 12 -4 12 -10 0 -5 -8 -10 -19 -10 -32 0 -45 -90 -13 -90 9 -1 64 -7 121 -14 98 -12 104 -12 109 6 8 32 25 20 18 -13 -3 -17 -6 -44 -6 -60 0 -16 -4 -29 -10 -29 -5 0 -10 9 -10 19 0 27 -3 28 -100 40 -47 6 -100 14 -117 17 l-33 5 0 -45 c0 -32 5 -48 17 -55 28 -15 9 -23 -23 -9 -39 16 -38 16 -27 30 13 16 36 205 27 220 -5 8 1 9 17 5 13 -4 30 -7 37 -7z m920 -7 c-2 -13 3 -17 20 -16 33 4 18 -13 -23 -27 -52 -17 -61 -9 -30 28 31 36 37 39 33 15z m386 6 c17 14 29 0 20 -23 -7 -19 -20 -21 -28 -3 -5 10 -7 10 -12 0 -8 -18 -21 -16 -28 3 -9 23 3 37 20 23 11 -9 17 -9 28 0z m408 -57 c-17 -5 -82 18 -82 29 0 6 8 9 18 7 12 -2 16 3 14 17 -2 16 4 13 29 -14 19 -20 27 -37 21 -39z m924 -24 c6 -68 5 -77 -15 -97 -26 -26 -71 -27 -103 -1 l-26 20 -46 -41 c-26 -23 -51 -50 -57 -61 -10 -19 -9 -20 20 -16 42 6 49 -7 11 -21 -58 -20 -60 -93 -3 -107 22 -6 33 0 74 44 71 76 125 81 156 17 23 -48 8 -99 -30 -103 -15 -2 -27 1 -27 7 0 6 4 11 9 11 16 0 41 31 41 50 0 22 -26 50 -47 50 -8 0 -39 -25 -68 -55 -44 -46 -58 -55 -87 -55 -24 0 -42 8 -57 24 -22 23 -22 30 -16 110 l7 86 54 49 c64 59 73 94 22 85 -72 -12 -78 -14 -78 -34 0 -11 -4 -20 -10 -20 -5 0 -10 11 -10 24 0 13 -3 38 -6 55 -4 20 -3 31 5 31 6 0 11 -7 11 -15 0 -18 9 -18 135 0 55 8 103 15 108 15 4 0 7 10 7 22 0 15 3 19 10 12 5 -5 13 -44 16 -86z m-1526 73 c0 -5 -19 -28 -42 -52 -36 -36 -43 -41 -46 -25 -2 10 10 32 29 52 31 32 59 44 59 25z m418 -22 c22 -20 32 -37 30 -52 -3 -20 -7 -18 -45 22 -24 24 -43 47 -43 52 0 18 26 8 58 -22z m-664 6 c-4 -8 -29 -22 -57 -30 -61 -18 -60 -18 -55 -3 2 6 26 20 54 29 62 22 65 22 58 4z m902 -1 c50 -17 71 -30 63 -38 -9 -10 -88 17 -105 35 -21 23 -20 23 42 3z m-589 -30 c9 4 22 1 29 -5 11 -9 17 -9 28 0 10 9 15 8 19 -3 6 -16 -16 -40 -26 -29 -4 3 -13 0 -22 -7 -13 -11 -15 -9 -15 10 0 22 -1 23 -20 5 -19 -18 -20 -17 -20 5 0 19 -2 20 -15 10 -21 -18 -19 4 3 26 16 17 17 17 20 0 3 -11 9 -15 19 -12z m267 10 c21 -20 21 -41 1 -24 -12 10 -15 10 -15 -4 0 -19 -11 -21 -28 -4 -9 9 -12 7 -12 -12 0 -22 -1 -23 -20 -5 -19 17 -20 17 -20 -1 0 -16 -2 -17 -15 -3 -20 20 -9 55 11 38 11 -9 17 -9 28 0 7 6 21 9 30 5 11 -4 16 -1 16 10 0 20 4 20 24 0z m-341 -26 c-6 -31 -18 -47 -35 -48 -14 0 -8 20 14 50 12 17 23 30 25 30 1 0 0 -15 -4 -32z m417 -35 c0 -7 -4 -13 -9 -13 -14 0 -29 23 -36 55 l-7 30 26 -30 c14 -16 25 -36 26 -42z m-565 48 c-3 -5 7 -11 22 -13 l28 -3 -38 -24 c-21 -13 -41 -21 -44 -17 -8 8 17 66 29 66 5 0 7 -4 3 -9z m695 -21 c17 -42 8 -46 -37 -19 l-38 24 28 3 c15 2 25 8 22 13 -4 5 -2 9 3 9 5 0 15 -14 22 -30z m1050 -197 c0 -65 -14 -90 -29 -50 -13 32 -53 57 -95 57 -27 0 -46 -10 -89 -50 -30 -27 -58 -50 -61 -50 -12 0 -5 28 13 51 12 16 17 34 14 51 -7 35 35 65 66 49 38 -21 90 -13 122 18 26 26 29 37 30 93 l1 63 14 -85 c7 -47 13 -113 14 -147z m-1789 204 c-14 -18 -89 -52 -97 -45 -15 15 21 46 53 46 19 0 37 3 40 6 12 12 15 6 4 -7z m803 1 c31 0 66 -31 52 -46 -8 -7 -84 28 -99 46 -10 13 -9 14 1 8 7 -4 28 -8 46 -8z m-807 -42 c-4 -9 1 -16 11 -18 13 -3 9 -8 -15 -21 -35 -19 -40 -13 -21 28 12 26 34 36 25 11z m125 5 c28 15 22 -4 -12 -36 -35 -33 -45 -29 -35 15 5 22 10 29 18 21 7 -7 16 -7 29 0z m315 -40 c121 -108 332 -169 461 -132 39 12 39 13 11 -115 -56 -259 -195 -555 -352 -749 -74 -92 -161 -175 -182 -175 -21 0 -108 83 -182 175 -157 194 -296 490 -352 749 -28 128 -28 127 11 115 129 -37 342 24 460 132 29 26 57 48 61 49 5 0 34 -22 64 -49z m230 40 c8 8 13 1 18 -21 10 -44 0 -48 -35 -15 -34 32 -40 51 -12 36 13 -7 22 -7 29 0z m121 -16 c19 -41 14 -47 -20 -28 -25 13 -29 18 -16 21 10 2 15 9 11 18 -9 25 13 15 25 -11z m-745 -72 c-25 -19 -27 -2 -7 44 l18 38 4 -35 c3 -25 -1 -38 -15 -47z m157 69 c0 -14 -51 -82 -61 -82 -6 0 -9 15 -7 33 2 17 8 32 15 32 7 0 18 6 25 13 14 14 28 16 28 4z m68 -9 c-4 -19 -38 -27 -38 -8 0 12 14 22 33 24 5 1 7 -6 5 -16z m246 11 c23 -9 20 -31 -4 -30 -11 0 -20 4 -20 9 0 4 0 12 0 17 0 12 3 12 24 4z m76 -8 c6 -8 18 -12 26 -9 10 4 14 -4 14 -31 0 -20 -4 -36 -10 -36 -9 0 -60 72 -60 85 0 10 18 5 30 -9z m136 -21 c20 -48 19 -58 -6 -45 -14 8 -20 21 -20 45 0 44 7 44 26 0z m-148 -29 l21 -35 -25 11 c-15 7 -24 20 -24 35 0 31 4 29 28 -11z m892 25 c0 -17 -25 -30 -40 -20 -13 8 -13 10 0 19 19 12 40 13 40 1z m-1354 -57 c-3 -8 -13 -14 -21 -14 -12 0 -15 6 -9 23 3 12 12 28 18 36 9 12 12 10 14 -8 2 -12 1 -29 -2 -37z m564 -1 c0 -10 -6 -13 -16 -9 -9 3 -18 6 -20 6 -2 0 -4 15 -4 33 l1 32 19 -24 c11 -13 20 -30 20 -38z m-1455 16 c22 -6 47 -17 56 -25 9 -8 24 -12 33 -8 15 6 17 1 14 -27 -2 -24 -7 -33 -18 -30 -26 6 -53 4 -133 -8 -110 -17 -174 -1 -111 28 19 8 24 16 19 29 -21 51 -21 52 41 52 33 0 77 -5 99 -11z m-215 -78 c0 -9 -7 -24 -14 -34 -14 -18 -14 -17 -21 2 -9 30 3 61 21 54 7 -3 14 -13 14 -22z m163 -49 c72 9 133 15 134 14 1 -1 -46 -52 -103 -114 -72 -76 -100 -112 -87 -112 26 0 155 19 176 26 11 3 16 12 13 20 -3 7 -1 16 3 19 5 2 12 -17 16 -43 4 -26 16 -69 26 -97 23 -60 23 -61 4 -45 -12 10 -21 8 -50 -14 -41 -31 -39 -27 -20 -72 14 -34 16 -35 62 -32 39 2 47 6 45 21 -6 33 15 17 26 -22 15 -47 15 -62 1 -37 -11 17 -21 18 -154 11 -92 -4 -145 -3 -149 3 -3 5 33 43 82 83 135 114 133 112 120 149 l-11 32 -56 -7 c-31 -4 -83 -11 -116 -14 -49 -5 -62 -10 -70 -28 -14 -32 -25 -28 -25 9 0 26 16 47 96 130 53 55 94 101 92 103 -5 6 -174 -21 -187 -30 -6 -3 -8 -12 -4 -20 3 -8 1 -15 -5 -15 -9 0 -22 55 -22 90 1 11 4 10 15 -4 15 -19 18 -20 148 -4z m161 -54 c11 -43 7 -78 -9 -78 -9 0 -30 -8 -48 -17 -35 -19 -77 -26 -77 -14 0 11 110 131 120 131 4 0 10 -10 14 -22z m2339 -29 l-18 -31 28 -22 c24 -20 26 -24 12 -30 -25 -9 -70 -7 -101 4 l-27 11 49 48 c58 58 84 67 57 20z m-2665 0 l13 -20 34 21 c19 12 46 20 61 18 27 -3 27 -3 -20 -48 -26 -25 -57 -60 -68 -79 l-22 -35 -13 30 c-13 32 -18 134 -5 134 4 0 13 -9 20 -21z m2767 -89 l-7 -42 -26 26 -26 25 24 26 c31 33 44 19 35 -35z m-315 21 c0 -15 19 -22 116 -41 113 -22 117 -23 130 -5 19 25 27 14 14 -19 -5 -15 -10 -38 -10 -52 0 -13 -4 -24 -10 -24 -5 0 -10 9 -10 20 0 11 -1 20 -2 20 -2 0 -55 11 -118 25 l-115 24 -18 -22 -19 -22 6 25 c3 14 9 42 12 62 6 37 24 44 24 9z m289 -140 c-10 -64 -13 -68 -34 -48 -14 14 -13 19 10 53 14 20 25 41 25 47 0 6 2 8 4 6 2 -2 0 -28 -5 -58z m-2481 41 c20 -13 6 -33 -60 -87 -118 -95 -136 -125 -99 -159 16 -15 32 -16 122 -10 98 7 102 6 94 -12 -21 -51 -33 -104 -28 -123 8 -33 -12 -24 -28 12 -10 23 -19 31 -34 29 -34 -6 -57 -34 -53 -64 10 -67 -26 -11 -105 162 -24 54 -67 193 -67 220 0 9 5 8 19 -4 19 -17 21 -17 58 3 21 12 65 25 98 30 33 5 62 9 65 10 3 0 11 -3 18 -7z m2306 -11 c74 -16 89 -28 64 -53 -10 -10 -18 -31 -18 -48 0 -16 -2 -30 -5 -30 -25 0 -167 65 -185 85 -13 14 -29 25 -37 25 -10 0 -11 4 -2 18 14 22 88 23 183 3z m-51 -134 c82 -34 113 -43 119 -34 16 24 21 61 9 78 -21 35 -9 39 28 8 16 -13 21 -23 14 -27 -12 -7 -71 -148 -82 -194 l-6 -26 -35 18 c-35 19 -35 19 -8 20 20 0 32 8 43 31 9 17 15 35 13 41 -2 6 -53 30 -113 53 -98 39 -111 41 -122 27 -20 -24 -25 -9 -10 29 32 79 30 77 34 48 4 -24 17 -32 116 -72z m-2118 33 c8 -24 -1 -40 -21 -40 -8 0 -14 -4 -14 -9 0 -4 -10 -8 -22 -7 -38 2 -35 39 4 58 43 22 46 22 53 -2z m1995 -70 c28 0 161 -53 167 -66 5 -15 -51 -74 -71 -74 -59 0 -118 24 -155 63 -34 35 -38 44 -29 62 15 28 29 35 49 24 10 -5 27 -9 39 -9z m-85 -90 c-5 -15 3 -25 34 -46 48 -31 193 -54 223 -35 24 15 23 8 -8 -39 -27 -41 -41 -52 -31 -25 8 19 3 22 -71 30 l-64 7 13 -23 c40 -77 60 -100 75 -89 19 17 18 7 -7 -34 -24 -41 -38 -47 -32 -13 6 34 -62 153 -105 182 -40 27 -68 32 -75 13 -2 -7 -7 -10 -11 -7 -6 6 52 99 62 99 2 0 1 -9 -3 -20z m-1840 -14 c39 -39 43 -73 10 -104 -23 -22 -26 -23 -20 -7 18 46 17 80 -4 99 -18 16 -25 17 -46 8 -31 -14 -45 -48 -45 -108 0 -52 -33 -94 -73 -94 -32 0 -73 33 -85 69 -9 26 -8 32 14 46 26 17 29 14 13 -16 -24 -45 24 -93 65 -65 20 12 24 26 28 82 4 58 8 70 32 90 36 31 80 31 111 0z m-35 -85 c0 -21 6 -43 13 -49 17 -13 50 1 75 32 l20 26 63 -66 c35 -36 97 -91 137 -121 39 -31 72 -59 72 -62 0 -4 -9 -14 -20 -24 -11 -9 -20 -28 -20 -42 0 -27 -25 -76 -77 -149 l-36 -50 37 -33 c28 -26 42 -32 59 -27 25 8 37 22 37 46 0 9 23 58 50 109 28 51 50 97 50 104 0 23 13 23 78 -4 37 -15 83 -31 102 -35 62 -12 67 -20 33 -61 -25 -30 -30 -44 -27 -77 2 -24 -2 -48 -11 -61 -24 -34 -19 -100 10 -131 20 -22 33 -26 77 -26 43 0 58 5 80 25 34 31 43 65 30 105 -8 23 -8 36 3 57 19 37 19 83 -1 111 -14 21 -14 23 8 31 17 7 28 4 44 -10 26 -24 65 -24 95 -1 20 16 29 17 51 8 19 -8 24 -16 18 -26 -4 -8 -11 -36 -14 -62 -6 -40 -4 -49 15 -67 13 -12 31 -21 42 -21 31 0 57 -19 57 -42 0 -13 -19 -41 -42 -65 -35 -35 -39 -44 -28 -57 20 -25 -11 -31 -160 -30 -214 1 -399 42 -579 127 -149 70 -309 186 -423 305 -68 71 -148 176 -148 193 0 4 18 -1 40 -12 55 -27 77 -24 115 14 23 23 35 46 39 77 10 63 16 80 27 80 5 0 9 -17 9 -39z m1806 14 c9 -8 27 -15 41 -15 35 0 96 -65 118 -127 10 -26 26 -57 36 -67 18 -19 19 -19 39 -1 38 34 20 -1 -33 -66 -102 -123 -271 -257 -414 -328 -148 -73 -226 -102 -343 -127 -98 -21 -107 -19 -70 12 76 64 90 163 31 216 -33 29 -38 47 -20 65 7 7 12 24 13 39 1 24 8 29 61 46 33 11 74 26 92 34 41 19 43 18 43 -10 0 -13 12 -33 30 -48 32 -26 90 -126 90 -155 0 -25 11 -39 37 -47 17 -5 31 1 60 28 l38 34 -21 24 c-26 29 -65 91 -94 148 -13 25 -32 53 -44 64 l-21 18 25 17 c68 45 173 136 225 195 32 36 60 66 62 66 3 0 11 -7 19 -15z m347 -77 c-5 -7 -20 -30 -33 -50 -27 -40 -40 -48 -40 -23 0 9 -11 27 -25 41 -14 14 -25 27 -25 30 0 3 20 2 44 -1 28 -5 46 -3 50 4 4 6 14 11 23 11 11 0 13 -4 6 -12z m-1713 -223 c0 -1 -27 -51 -60 -110 -59 -106 -70 -135 -50 -135 6 0 10 -4 10 -10 0 -5 -21 2 -47 15 -58 31 -65 38 -33 33 22 -3 31 8 76 87 46 79 50 92 38 106 -21 23 -18 25 26 21 22 -2 40 -5 40 -7z m1070 -56 c64 -128 86 -158 112 -152 32 8 20 -2 -35 -32 -26 -13 -47 -20 -47 -15 0 6 5 10 10 10 19 0 9 31 -37 116 -41 73 -51 84 -70 81 -13 -2 -23 -2 -23 0 0 7 44 62 50 62 3 0 21 -31 40 -70z m-332 -55 c-2 -9 -23 -24 -48 -33 -52 -19 -68 -51 -25 -51 37 0 92 -25 104 -48 17 -31 13 -73 -9 -110 -29 -46 -110 -93 -110 -62 0 6 7 10 16 10 9 0 31 15 50 34 64 64 36 136 -52 136 l-47 0 7 52 c4 29 8 53 9 54 5 3 93 33 100 33 5 1 7 -6 5 -15z m-384 -15 c35 -28 35 -70 0 -98 -25 -20 -26 -22 -10 -39 26 -30 21 -87 -10 -111 -32 -25 -61 -27 -92 -5 -51 35 -49 96 4 124 22 12 23 15 9 30 -24 27 -19 76 11 99 15 12 34 21 44 21 10 0 29 -9 44 -21z"/> <path d="M1242 2822 c-9 -6 -10 -21 -2 -62 5 -29 10 -54 10 -56 0 -11 51 -2 64 12 19 19 21 64 4 87 -16 19 -58 30 -76 19z"/> <path d="M1577 2764 c-19 -53 -16 -64 19 -64 25 0 25 2 19 43 -11 67 -19 71 -38 21z"/> <path d="M990 2656 c0 -55 1 -57 23 -50 47 14 47 18 12 63 l-35 44 0 -57z"/> <path d="M1391 2413 c-1 -18 -7 -23 -28 -24 -28 0 -28 0 -5 -11 18 -9 22 -17 17 -37 -6 -24 -6 -25 12 -9 14 13 23 14 37 6 16 -9 17 -7 11 12 -5 15 -1 26 12 36 17 14 16 15 -8 10 -20 -4 -29 -1 -37 17 l-11 22 0 -22z"/> <path d="M1606 2412 c-6 -18 -13 -21 -34 -16 -25 5 -26 4 -9 -10 13 -10 17 -21 12 -36 -6 -19 -5 -21 11 -12 14 8 23 7 37 -6 18 -16 18 -15 12 11 -6 21 -4 27 9 27 9 0 16 5 16 10 0 6 -9 10 -19 10 -13 0 -21 8 -23 23 l-4 22 -8 -23z"/> <path d="M1180 2362 c0 -14 -8 -26 -22 -31 l-22 -8 22 -5 c15 -4 22 -14 22 -30 1 -22 1 -22 15 -5 9 13 20 17 35 12 19 -6 20 -5 9 13 -10 17 -10 24 2 38 13 16 12 17 -10 11 -17 -4 -29 -1 -37 11 -12 15 -13 15 -14 -6z"/> <path d="M1817 2366 c-5 -14 -13 -17 -34 -11 -24 6 -25 5 -13 -10 11 -14 11 -20 1 -37 -11 -18 -10 -19 8 -13 14 4 23 1 27 -9 9 -23 24 -20 24 4 0 11 7 20 15 20 8 0 15 5 15 10 0 6 -6 10 -14 10 -9 0 -16 12 -18 28 -3 23 -4 24 -11 8z"/> <path d="M987 2260 c3 -12 -1 -22 -11 -26 -23 -9 -20 -23 4 -17 14 4 22 -1 28 -17 7 -20 10 -21 15 -7 4 10 17 17 29 17 22 1 22 1 5 14 -15 12 -16 18 -7 35 12 23 1 28 -18 9 -9 -9 -15 -9 -24 0 -18 18 -27 15 -21 -8z"/> <path d="M1959 2262 c11 -20 10 -26 -6 -38 -17 -13 -17 -13 3 -14 12 0 26 -10 32 -22 l11 -23 0 23 c1 17 7 22 29 22 25 1 26 1 7 12 -11 6 -21 12 -23 14 -2 1 2 13 9 26 12 23 12 23 -10 4 -21 -19 -21 -19 -42 0 -22 19 -22 19 -10 -4z"/> <path d="M1490 2251 c0 -16 -7 -21 -27 -22 l-28 0 22 -16 c18 -12 21 -19 12 -35 -10 -18 -9 -19 11 -8 16 9 25 9 33 1 17 -17 29 -13 18 6 -7 13 -5 23 6 35 15 17 14 18 -5 18 -13 0 -22 6 -22 14 0 8 -4 18 -10 21 -5 3 -10 -3 -10 -14z"/> <path d="M1281 2218 c-1 -19 -7 -28 -23 -31 l-23 -4 23 -8 c15 -5 22 -15 22 -34 1 -23 2 -24 11 -8 8 14 18 17 37 12 26 -6 26 -5 10 11 -17 17 -17 19 0 37 16 19 16 20 -9 14 -21 -5 -28 -2 -37 16 -10 22 -11 22 -11 -5z"/> <path d="M866 2135 c-4 -13 -10 -14 -26 -5 -21 11 -29 -3 -9 -15 7 -5 4 -14 -8 -27 -18 -20 -17 -20 5 -14 16 5 24 3 29 -10 6 -15 7 -15 14 4 5 14 17 22 31 23 l23 0 -23 12 c-16 7 -22 17 -19 29 6 22 -8 24 -17 3z"/> <path d="M1089 2128 c8 -22 6 -27 -12 -36 l-22 -11 23 0 c14 -1 26 -10 31 -23 l8 -23 7 22 c5 16 12 20 29 15 21 -5 21 -4 5 14 -12 14 -14 24 -7 37 11 19 -1 23 -19 5 -9 -9 -16 -7 -32 7 -21 19 -21 19 -11 -7z"/> <path d="M1850 2120 c9 -16 8 -22 -5 -26 -22 -9 -19 -27 3 -20 13 5 22 -1 30 -16 l11 -23 0 23 c1 17 7 22 29 23 27 0 27 1 4 11 -17 8 -21 16 -16 32 6 19 5 19 -10 7 -13 -11 -20 -11 -28 -3 -19 19 -30 14 -18 -8z"/> <path d="M1667 2116 c-6 -14 -13 -17 -34 -11 -27 6 -27 6 -10 -13 12 -13 15 -22 8 -27 -19 -11 -12 -27 9 -20 13 4 22 1 26 -9 9 -23 23 -20 17 4 -4 14 1 22 18 28 l24 9 -22 7 c-12 4 -23 17 -25 29 -3 20 -4 20 -11 3z"/> <path d="M250 1895 c0 -2 20 -18 44 -34 l44 -31 11 32 c6 17 11 33 11 34 0 2 -25 4 -55 4 -30 0 -55 -2 -55 -5z"/> <path d="M2727 1713 c-24 -4 -26 -8 -21 -31 10 -41 23 -52 60 -52 40 0 64 22 64 61 0 27 -2 29 -37 28 -21 -1 -50 -4 -66 -6z"/> <path d="M1442 1580 c-60 -48 -176 -103 -250 -119 -29 -6 -84 -11 -121 -11 l-68 0 18 -77 c65 -278 221 -579 398 -765 l76 -81 78 83 c177 188 337 498 401 778 l14 62 -68 0 c-38 0 -93 5 -122 11 -75 16 -195 73 -250 119 -25 22 -49 40 -51 40 -2 0 -27 -18 -55 -40z m198 -80 c79 -40 153 -61 238 -67 55 -4 82 -10 82 -18 0 -20 -48 -184 -77 -260 -39 -104 -113 -248 -180 -350 -63 -95 -192 -249 -208 -249 -17 0 -146 155 -212 256 -105 159 -220 428 -248 579 l-7 36 84 6 c121 9 241 55 338 130 l45 34 50 -37 c27 -21 70 -48 95 -60z"/> <path d="M1480 1490 l0 -50 -45 0 c-39 0 -45 -3 -45 -21 0 -19 5 -21 45 -17 l45 3 0 -127 0 -128 -25 0 c-23 0 -25 3 -25 51 0 38 5 55 18 65 15 12 10 13 -38 13 -53 0 -54 -1 -32 -16 21 -14 22 -23 22 -130 0 -92 -3 -115 -15 -119 -30 -12 -14 -24 30 -24 25 0 45 5 45 10 0 6 -7 10 -15 10 -12 0 -15 13 -15 60 l0 60 70 0 70 0 0 -55 c0 -40 -4 -57 -15 -61 -30 -12 -14 -24 30 -24 25 0 45 5 45 10 0 6 -7 10 -15 10 -13 0 -15 20 -15 121 0 104 3 124 18 135 15 12 11 13 -30 14 -47 0 -63 -12 -33 -24 11 -4 15 -20 15 -56 0 -47 -2 -50 -25 -50 l-25 0 0 128 0 127 45 -3 c40 -4 45 -2 45 17 0 18 -6 21 -45 21 l-45 0 0 50 c0 43 -3 50 -20 50 -17 0 -20 -7 -20 -50z"/> <path d="M1235 1270 c3 -5 13 -10 21 -10 11 0 14 -22 14 -119 0 -112 -1 -119 -22 -134 -22 -15 -21 -16 30 -16 28 -1 52 4 52 9 0 6 -7 10 -15 10 -13 0 -15 21 -15 125 0 104 2 125 15 125 8 0 15 5 15 10 0 6 -23 10 -51 10 -31 0 -48 -4 -44 -10z"/> <path d="M1677 1262 c-10 -10 -17 -34 -17 -54 0 -29 8 -43 50 -81 53 -49 63 -82 34 -111 -27 -28 -55 -16 -92 40 -11 17 -12 15 -6 -16 8 -42 18 -50 66 -50 28 0 42 6 57 26 37 47 25 83 -46 150 -46 43 -52 63 -27 89 22 22 57 15 69 -12 11 -26 31 -32 21 -7 -3 9 -6 22 -6 30 0 22 -83 19 -103 -4z"/> <path d="M1475 894 c-15 -23 -15 -27 -1 -43 12 -13 16 -38 16 -94 0 -45 4 -77 10 -77 6 0 10 32 10 77 0 56 4 81 16 94 14 16 14 20 -1 43 -10 14 -21 26 -25 26 -4 0 -15 -12 -25 -26z"/> <path d="M1347 866 c-4 -25 1 -36 22 -56 15 -14 38 -51 51 -83 13 -31 27 -57 32 -57 11 0 11 0 -22 73 -20 44 -28 75 -24 94 4 23 0 31 -24 44 l-30 17 -5 -32z"/> <path d="M1617 881 c-23 -13 -27 -21 -23 -44 4 -19 -4 -50 -24 -94 -33 -73 -33 -73 -22 -73 5 0 19 26 32 57 13 32 36 69 51 83 23 21 26 30 21 56 -7 30 -7 30 -35 15z"/> <path d="M325 1035 l-40 -35 53 0 c54 0 58 3 46 48 -8 29 -11 28 -59 -13z"/> <path d="M646 639 c-34 -27 -35 -71 -1 -104 32 -33 60 -31 96 4 36 36 36 51 3 90 -30 36 -61 39 -98 10z m80 -30 c20 -22 13 -43 -19 -63 -36 -23 -75 36 -47 70 17 20 44 17 66 -7z"/> <path d="M2256 639 c-19 -15 -26 -30 -26 -54 0 -37 37 -75 72 -75 24 0 78 52 78 76 0 25 -50 74 -76 74 -12 0 -33 -9 -48 -21z m80 -30 c20 -22 13 -43 -19 -63 -36 -23 -75 36 -47 70 17 20 44 17 66 -7z"/> <path d="M1288 419 c-25 -14 -22 -52 5 -77 23 -22 24 -22 40 -4 20 22 22 63 5 80 -14 14 -27 15 -50 1z"/> <path d="M1257 282 c-20 -22 -22 -73 -5 -90 18 -18 56 -14 68 7 16 31 12 56 -13 79 -28 27 -30 27 -50 4z"/> </g> </svg> 