<?xml version="1.0" standalone="no"?>
<!DOCTYPE svg PUBLIC "-//W3C//DTD SVG 20010904//EN"
 "http://www.w3.org/TR/2001/REC-SVG-20010904/DTD/svg10.dtd">
<svg version="1.0" xmlns="http://www.w3.org/2000/svg"
 width="200.000000pt" height="200.000000pt" viewBox="0 0 200.000000 200.000000"
 preserveAspectRatio="xMidYMid meet">
<metadata>
Created by potrace 1.10, written by Peter Selinger 2001-2011
</metadata>
<g transform="translate(0.000000,200.000000) scale(0.100000,-0.100000)"
fill="#000000" stroke="none">
<path d="M628 1582 c-16 -9 -28 -20 -28 -24 0 -5 -7 -8 -16 -8 -8 0 -12 -4 -9
-10 3 -5 6 -163 5 -350 -1 -384 3 -405 62 -417 28 -5 29 -7 13 -14 -13 -5 -6
-6 18 -3 25 4 37 2 37 -5 0 -7 5 -9 12 -5 6 4 153 7 327 6 174 0 307 3 296 7
-16 7 -14 9 13 14 59 12 63 33 62 417 -1 187 2 345 5 350 3 6 -1 10 -9 10 -9
0 -16 4 -16 8 0 4 -13 15 -29 25 -26 15 -66 17 -373 17 -305 -1 -346 -2 -370
-18z m751 -38 c20 -26 21 -38 21 -360 0 -223 -4 -341 -11 -357 -20 -45 -41
-47 -390 -47 -356 0 -379 3 -393 52 -3 13 -6 172 -6 354 0 320 1 332 21 358
l20 26 359 0 359 0 20 -26z"/>
<path d="M667 1513 c-4 -3 -7 -156 -7 -340 l0 -333 340 0 340 0 -2 338 -3 337
-331 3 c-182 1 -333 -1 -337 -5z m457 -26 c151 -2 190 -5 194 -16 3 -9 0 -11
-8 -6 -9 6 -9 3 -1 -13 8 -15 10 -110 9 -304 l-3 -283 -318 0 -318 0 1 305 c1
168 5 309 10 315 5 6 56 9 127 7 65 -1 203 -4 307 -5z"/>
<path d="M852 1447 c-12 -7 -19 -17 -15 -22 4 -4 -3 -1 -17 8 -31 21 -69 22
-77 1 -4 -10 -8 -12 -13 -4 -4 6 -6 -7 -6 -29 0 -22 3 -38 7 -35 4 2 10 0 14
-6 3 -5 0 -10 -7 -10 -10 0 -10 -2 1 -9 11 -7 10 -11 -5 -20 -11 -6 -14 -11
-9 -11 6 0 4 -4 -4 -9 -9 -6 -11 -18 -6 -41 5 -21 10 -28 15 -20 5 8 9 5 13
-9 3 -12 1 -19 -3 -16 -5 3 -11 -9 -15 -26 -5 -22 -2 -36 11 -50 16 -18 16
-20 1 -37 -21 -23 -22 -46 -1 -66 14 -15 14 -16 -3 -17 -16 0 -16 -1 2 -8 19
-8 19 -8 0 -19 -11 -6 -15 -12 -10 -12 6 0 4 -4 -4 -9 -9 -6 -11 -18 -6 -41 5
-24 10 -29 16 -19 7 11 9 11 9 -3 0 -9 8 -17 18 -17 9 0 97 -1 196 -3 176 -4
179 -3 193 19 9 13 20 23 27 22 7 0 6 -2 -1 -6 -7 -2 -13 -9 -13 -14 0 -4 7
-6 15 -3 8 4 15 2 15 -4 0 -12 53 -2 63 12 5 8 10 7 16 -3 6 -10 8 0 5 30 -2
24 -9 45 -14 47 -15 5 -12 32 4 32 7 0 16 10 20 23 9 34 7 47 -6 45 -7 -2 -12
5 -12 14 1 11 -4 15 -15 11 -11 -5 -10 1 7 19 29 32 28 52 -4 77 -29 23 -25
27 9 9 20 -10 21 -10 8 6 -9 11 -11 20 -5 24 14 10 12 58 -3 74 -18 17 -16 31
2 24 8 -3 14 -2 13 2 -1 4 2 15 6 25 10 21 -1 70 -13 63 -5 -3 -14 1 -21 9
-17 20 -362 21 -398 2z m-43 -47 c1 -14 7 -28 12 -31 6 -3 -6 -6 -25 -7 -43
-2 -62 18 -46 48 16 30 54 23 59 -10z m440 11 c7 -13 7 -23 -2 -35 -11 -14
-34 -16 -197 -14 -169 3 -185 5 -188 21 -9 46 -3 47 192 47 170 0 186 -1 195
-19z m-220 -108 c6 -11 6 -24 0 -35 -9 -16 -25 -18 -138 -18 -141 0 -163 8
-141 49 10 20 20 21 140 21 112 0 130 -2 139 -17z m222 1 c9 -11 10 -20 2 -32
-8 -14 -26 -17 -89 -17 -68 0 -79 2 -82 18 -8 40 4 47 81 47 56 0 78 -4 88
-16z m-446 -129 c0 -25 -4 -31 -26 -33 -31 -4 -44 19 -28 49 6 13 18 19 32 17
17 -2 22 -10 22 -33z m330 0 l0 -30 -135 0 c-135 0 -135 0 -138 24 -2 13 2 28
10 32 7 5 69 8 138 7 l125 -3 0 -30z m115 14 c14 -26 -4 -51 -34 -47 -21 3
-32 28 -22 54 8 21 44 17 56 -7z m-335 -124 l0 -30 -79 0 c-63 0 -81 3 -89 17
-8 12 -7 21 3 33 10 12 29 15 89 13 l76 -3 0 -30z m329 19 c43 -42 8 -55 -140
-52 -127 3 -129 3 -132 27 -2 13 2 28 10 32 7 5 66 9 130 9 93 0 120 -3 132
-16z m-110 -110 c19 -19 20 -26 4 -42 -17 -17 -369 -17 -386 0 -16 16 -15 23
4 42 23 24 355 24 378 0z m110 3 c28 -21 12 -59 -22 -55 -30 3 -41 30 -22 53
15 18 21 19 44 2z"/>
<path d="M766 701 c-9 -10 -16 -27 -16 -37 0 -18 -5 -20 -60 -16 -46 3 -63 1
-76 -13 -12 -11 -19 -13 -24 -5 -4 6 -7 -4 -7 -22 0 -17 -5 -34 -11 -36 -8 -2
-7 -8 3 -19 20 -20 19 -82 -2 -106 -10 -11 -13 -17 -7 -14 12 7 68 -16 60 -24
-3 -2 19 -4 47 -5 40 0 56 4 70 20 10 12 16 15 12 9 -4 -8 1 -13 12 -13 15 0
16 -2 3 -11 -11 -8 -8 -9 14 -4 43 9 56 28 63 97 6 55 7 59 14 34 8 -28 3 -91
-8 -108 -2 -5 1 -8 6 -8 6 0 11 5 11 11 0 5 5 7 10 4 6 -4 7 -11 4 -17 -4 -6
-2 -8 4 -4 6 3 13 2 17 -4 3 -5 13 -10 21 -10 8 0 13 4 10 9 -3 5 1 12 10 15
22 8 24 8 18 -7 -5 -15 53 -16 76 -2 9 5 11 4 6 -3 -4 -7 -1 -12 8 -12 8 0 16
6 19 13 3 9 7 9 20 -1 12 -11 20 -11 38 -2 17 10 23 9 30 -1 7 -12 11 -11 19
1 7 11 10 11 10 2 0 -7 4 -11 9 -8 5 3 12 -1 15 -10 3 -8 2 -12 -4 -9 -20 12
-9 -12 13 -31 35 -28 43 -27 75 12 16 19 38 36 50 37 11 0 19 4 16 8 -4 7 25
23 38 21 8 -2 27 92 26 131 0 15 -5 27 -10 27 -5 0 -6 10 -3 23 5 17 4 19 -4
7 -9 -13 -11 -13 -11 2 0 11 -5 15 -15 12 -8 -4 -15 -1 -15 6 0 9 -13 11 -45
8 -25 -3 -45 -2 -45 3 0 16 -16 9 -51 -22 -34 -30 -34 -31 -34 -115 0 -74 -2
-84 -18 -84 -16 0 -17 9 -15 98 3 93 4 97 25 95 15 -2 22 3 21 15 0 9 2 24 6
33 8 19 -32 59 -42 42 -4 -6 -18 -13 -32 -16 -22 -5 -22 -5 5 -5 50 0 55 -1
55 -16 0 -24 -22 -30 -36 -11 -12 16 -14 16 -29 1 -15 -15 -15 -16 4 -16 12 0
21 -4 21 -10 0 -5 -4 -10 -10 -10 -5 0 -9 -5 -7 -11 4 -21 -21 -20 -28 0 -3
11 -9 20 -13 19 -4 -1 -21 1 -38 5 -21 6 -43 2 -72 -11 -23 -10 -41 -21 -39
-23 1 -2 -6 4 -16 14 -10 9 -22 15 -28 12 -5 -4 -9 -1 -9 4 0 6 -5 11 -11 11
-5 0 -7 -6 -3 -12 4 -7 -9 6 -29 28 -43 49 -70 59 -91 35z m44 -45 l0 -44 44
5 c37 5 46 2 60 -18 22 -32 23 -169 1 -169 -12 0 -15 14 -15 69 0 77 -11 94
-57 89 -28 -3 -28 -4 -31 -80 -2 -60 -6 -78 -17 -78 -12 0 -15 23 -15 135 0
113 2 135 15 135 11 0 15 -12 15 -44z m-87 -43 c4 -2 7 -10 7 -17 0 -10 -12
-12 -45 -8 -38 4 -45 2 -45 -12 0 -11 18 -25 50 -38 46 -19 50 -23 50 -54 0
-23 -6 -37 -19 -44 -47 -25 -143 1 -113 31 9 10 15 10 24 1 7 -7 27 -12 45
-12 26 0 33 4 33 20 0 14 -11 23 -41 31 -51 16 -75 48 -59 79 18 34 73 45 113
23z m581 7 c16 6 35 6 50 0 47 -17 60 -135 20 -175 -18 -18 -75 -20 -92 -3 -9
9 -12 0 -12 -40 0 -40 -4 -52 -15 -52 -13 0 -15 21 -15 133 0 74 3 137 7 140
3 4 12 2 18 -3 9 -7 21 -7 39 0z m-210 -13 c14 -11 18 -27 18 -77 0 -53 4 -67
22 -82 18 -15 19 -17 4 -18 -10 0 -18 -5 -18 -12 0 -6 -8 -2 -18 10 -13 15
-22 18 -35 10 -10 -5 -34 -8 -54 -6 -48 4 -66 42 -39 82 14 22 24 26 62 26 41
0 45 2 42 23 -3 20 -8 22 -55 20 -40 -2 -53 1 -53 12 0 25 94 34 124 12z"/>
<path d="M1290 580 c-24 -24 -27 -92 -6 -109 8 -7 27 -11 43 -9 27 3 28 5 28
62 0 52 -3 60 -23 67 -17 6 -27 4 -42 -11z m40 -50 c0 -16 -4 -30 -10 -30 -5
0 -10 14 -10 30 0 17 5 30 10 30 6 0 10 -13 10 -30z"/>
<path d="M1030 513 c-47 -9 -48 -53 -1 -53 31 0 51 16 51 42 0 18 -4 19 -50
11z"/>
</g>
</svg>
