<?xml version="1.0" standalone="no"?>
<!DOCTYPE svg PUBLIC "-//W3C//DTD SVG 20010904//EN"
 "http://www.w3.org/TR/2001/REC-SVG-20010904/DTD/svg10.dtd">
<svg version="1.0" xmlns="http://www.w3.org/2000/svg"
 width="200.000000pt" height="200.000000pt" viewBox="0 0 200.000000 200.000000"
 preserveAspectRatio="xMidYMid meet">
<metadata>
Created by potrace 1.10, written by Peter Selinger 2001-2011
</metadata>
<g transform="translate(0.000000,200.000000) scale(0.100000,-0.100000)"
fill="#000000" stroke="none">
<path d="M950 1941 c-44 -27 -202 -119 -306 -177 -28 -16 -148 -85 -267 -154
l-217 -125 0 -485 0 -485 148 -84 c81 -46 199 -114 262 -151 63 -37 186 -108
272 -158 l158 -91 157 91 c87 50 199 115 248 144 50 28 113 65 141 81 27 15
105 59 172 98 l122 70 0 485 0 485 -183 104 c-100 58 -218 126 -262 151 -44
26 -125 73 -180 105 -55 31 -125 73 -157 91 -31 19 -58 34 -60 34 -1 0 -23
-13 -48 -29z m82 -17 c7 -5 30 -19 51 -29 20 -11 37 -22 37 -26 0 -3 38 -25
85 -48 47 -23 83 -46 80 -52 -4 -5 0 -9 8 -9 14 0 168 -78 177 -90 3 -3 30
-19 60 -34 30 -16 57 -31 60 -35 3 -3 17 -12 33 -20 15 -8 27 -21 27 -28 0 -8
5 -11 11 -8 12 8 69 -13 69 -26 0 -4 9 -11 20 -14 11 -4 17 -11 14 -17 -4 -7
-2 -8 5 -4 6 4 18 2 26 -4 12 -10 15 -86 15 -485 l0 -472 -28 -12 c-15 -7 -50
-28 -79 -47 -28 -19 -56 -34 -62 -34 -6 0 -11 -4 -11 -10 0 -5 -12 -13 -27
-16 -16 -4 -30 -10 -33 -15 -3 -4 -14 -9 -25 -11 -10 -1 -27 -10 -36 -18 -32
-29 -73 -55 -86 -54 -7 1 -13 -2 -13 -6 0 -5 -20 -18 -45 -30 -25 -12 -48 -26
-51 -32 -3 -5 -12 -7 -20 -4 -8 3 -14 0 -14 -7 0 -13 -111 -72 -125 -68 -4 1
-14 -6 -23 -17 -9 -10 -27 -22 -39 -26 -13 -4 -23 -11 -23 -15 0 -4 -17 -13
-38 -20 -34 -12 -42 -11 -82 10 -25 12 -52 28 -60 34 -8 7 -52 32 -97 55 -45
24 -80 47 -76 53 3 5 0 8 -8 5 -8 -3 -34 8 -60 22 -25 15 -62 35 -82 45 -20 9
-37 21 -37 25 0 4 -13 13 -30 18 -22 8 -28 15 -24 29 4 12 3 14 -3 6 -7 -10
-19 -7 -53 9 -25 12 -47 24 -50 28 -3 3 -26 17 -53 30 -26 14 -47 28 -47 31 0
3 -18 14 -40 24 -26 12 -39 23 -36 32 3 7 2 13 -2 13 -5 0 -7 633 -3 896 1 26
7 34 41 49 22 10 40 21 40 25 0 4 8 11 18 14 9 4 35 17 57 31 50 30 78 46 135
76 25 13 54 31 65 41 10 10 25 16 32 14 6 -3 13 -2 15 2 3 8 101 67 106 64 1
-1 11 7 22 18 11 11 27 20 35 20 8 0 15 5 15 11 0 6 7 8 17 5 10 -4 14 -4 10
0 -3 4 15 18 41 31 76 38 137 74 140 82 4 10 37 7 54 -5z"/>
<path d="M822 1498 c-15 -5 -33 -6 -40 -3 -7 3 -10 0 -7 -5 3 -6 -1 -10 -9
-10 -9 0 -16 -5 -16 -11 0 -6 -7 -8 -17 -5 -10 4 -14 4 -10 0 4 -4 0 -15 -9
-25 -18 -20 -37 -82 -35 -119 0 -26 51 -134 51 -110 0 7 13 -7 29 -31 16 -24
27 -47 24 -53 -3 -5 -1 -6 5 -2 6 3 23 -10 39 -31 15 -21 40 -51 55 -68 16
-16 28 -38 28 -48 0 -10 4 -16 8 -13 9 5 48 -54 44 -67 -1 -5 2 -6 7 -3 9 6
61 -56 61 -73 0 -6 5 -11 11 -11 5 0 7 -4 4 -10 -3 -5 0 -10 8 -10 7 0 20 -11
27 -25 7 -14 17 -25 22 -25 4 0 8 -7 8 -15 0 -8 5 -15 11 -15 5 0 7 -5 4 -10
-7 -11 -214 -14 -251 -4 -12 3 -28 22 -38 44 -19 44 -53 56 -104 35 -55 -23
-66 -85 -30 -161 17 -38 31 -51 72 -70 48 -22 62 -24 240 -24 168 0 194 2 230
20 40 19 65 56 81 122 6 24 -17 92 -35 103 -5 3 -10 16 -10 27 0 12 -3 19 -6
15 -7 -7 -54 51 -122 150 -27 40 -52 69 -56 66 -3 -4 -6 -1 -6 5 0 7 -13 26
-30 43 -16 18 -27 37 -23 43 3 6 3 8 -2 4 -7 -7 -105 100 -105 116 0 5 -9 17
-21 27 -11 10 -18 23 -14 28 3 6 -1 11 -10 11 -9 0 -15 6 -13 13 3 8 43 13
132 17 113 4 129 3 137 -12 6 -11 5 -18 -4 -21 -7 -3 -5 -6 6 -6 9 -1 17 -7
17 -14 0 -8 10 -23 23 -35 20 -19 27 -20 61 -11 51 14 76 42 76 83 0 41 -18
96 -32 96 -6 0 -7 8 -4 17 4 10 4 14 0 10 -4 -4 -19 6 -33 21 -15 15 -31 27
-36 28 -6 0 -21 3 -35 7 -36 9 -326 13 -358 5z m352 -27 c80 -19 142 -117 115
-182 -24 -59 -103 -48 -115 16 -3 19 -10 38 -15 41 -13 8 -328 8 -336 0 -4 -3
7 -23 23 -44 17 -20 93 -118 169 -217 77 -99 142 -182 146 -185 21 -17 128
-173 133 -194 6 -26 -6 -89 -21 -112 -5 -6 -24 -21 -43 -33 -32 -19 -49 -21
-216 -21 -169 0 -184 1 -225 23 -31 16 -51 36 -66 67 -28 53 -29 81 -5 108 41
48 97 28 111 -38 l7 -35 164 -3 c90 -1 167 1 172 6 5 5 -29 56 -74 113 -232
295 -374 483 -386 511 -29 69 24 170 96 181 54 8 328 6 366 -2z"/>
</g>
</svg>
